<?xml version="1.0" encoding="utf-8"?>
<!-- Generator: Adobe Illustrator 22.0.1, SVG Export Plug-In . SVG Version: 6.00 Build 0)  -->
<svg version="1.1" id="Lag_1" xmlns="http://www.w3.org/2000/svg" xmlns:xlink="http://www.w3.org/1999/xlink" x="0px" y="0px"
	 viewBox="0 0 512 512" style="enable-background:new 0 0 512 512;" xml:space="preserve">
<style type="text/css">
	.st0{fill:#323437;}
	.st1{fill:#2B2D31;}
</style>
<path class="st0" d="M464,128H272l-64-64H48C21.5,64,0,85.5,0,112v288c0,26.5,21.5,48,48,48h416c26.5,0,48-21.5,48-48V176
	C512,149.5,490.5,128,464,128z"/>
<g>
	<path class="st1" d="M98.7,332.6c-1.6-1.6-2.4-3.8-2.4-6.7v-86.3c0-2.9,0.8-5.1,2.4-6.7c1.6-1.6,3.9-2.4,6.7-2.4h29.3
		c17.1,0,30.3,4.6,39.7,13.7c9.4,9.1,14.1,21.9,14.1,38.4c0,16.6-4.7,29.4-14.1,38.6c-9.4,9.1-22.7,13.7-39.7,13.7h-29.3
		C102.6,335,100.3,334.2,98.7,332.6z M133.5,319.5c24,0,36-12.2,36-36.7c0-24.4-12-36.6-36-36.6h-18.2v73.3H133.5z"/>
	<path class="st1" d="M300.6,327.5c0,2.3-0.9,4.2-2.7,5.8c-1.8,1.6-3.9,2.4-6.3,2.4c-1.6,0-3.1-0.4-4.4-1.3
		c-1.4-0.8-2.5-2.1-3.3-3.9l-8.9-19.8h-52.1l-8.9,19.8c-0.8,1.8-1.9,3.1-3.3,3.9c-1.4,0.8-2.9,1.3-4.6,1.3c-2.3,0-4.3-0.8-6.2-2.4
		c-1.9-1.6-2.8-3.5-2.8-5.8c0-1.3,0.3-2.6,0.9-3.8l40.8-87.8c0.9-2,2.2-3.5,4.1-4.5c1.8-1,3.8-1.6,5.8-1.6s4,0.5,5.8,1.6
		c1.8,1,3.2,2.5,4.1,4.5l41,87.8C300.3,324.9,300.6,326.2,300.6,327.5z M229.4,295.8h39.1l-19.5-44L229.4,295.8z"/>
	<path class="st1" d="M400.6,232.5c1.6,1.7,2.4,4,2.4,6.9v86.9c0,2.9-0.8,5.2-2.5,7c-1.7,1.8-3.8,2.7-6.5,2.7
		c-3.2,0-5.6-1.1-7.3-3.4l-54-70.3v64.1c0,2.9-0.8,5.2-2.4,7c-1.6,1.8-3.8,2.7-6.5,2.7c-2.8,0-4.9-0.9-6.5-2.7
		c-1.6-1.8-2.4-4.1-2.4-7v-86.9c0-2.9,0.8-5.2,2.5-6.9c1.7-1.7,3.9-2.6,6.7-2.6c3.1,0,5.4,1.1,7.1,3.4l53.9,70v-63.9
		c0-2.9,0.8-5.2,2.4-6.9c1.6-1.7,3.8-2.6,6.4-2.6C396.8,229.9,399,230.8,400.6,232.5z"/>
</g>
</svg>
