<?xml version="1.0" encoding="utf-8"?>
<!-- Generator: Adobe Illustrator 22.0.1, SVG Export Plug-In . SVG Version: 6.00 Build 0)  -->
<svg version="1.1" id="Lag_1" xmlns="http://www.w3.org/2000/svg" xmlns:xlink="http://www.w3.org/1999/xlink" x="0px" y="0px"
	 viewBox="0 0 512 512" style="enable-background:new 0 0 512 512;" xml:space="preserve">
<style type="text/css">
	.st0{fill:#949BA7;}
	.st1{fill:#C7CEDA;}
</style>
<path class="st0" d="M464,128H272l-64-64H48C21.5,64,0,85.5,0,112v288c0,26.5,21.5,48,48,48h416c26.5,0,48-21.5,48-48V176
	C512,149.5,490.5,128,464,128z"/>
<g>
	<path class="st1" d="M123.4,333.2c-1.7-1.7-2.6-4-2.6-6.9v-79.9H93.9c-5.9,0-8.9-2.6-8.9-7.8s3-7.8,8.9-7.8h73
		c5.9,0,8.9,2.6,8.9,7.8s-3,7.8-8.9,7.8H140v79.9c0,2.9-0.9,5.2-2.6,6.9c-1.7,1.7-4,2.6-6.9,2.6
		C127.5,335.7,125.1,334.9,123.4,333.2z"/>
	<path class="st1" d="M189.4,332.6c-1.6-1.6-2.4-3.8-2.4-6.7v-86.3c0-2.9,0.8-5.1,2.4-6.7c1.6-1.6,3.9-2.4,6.7-2.4h53.4
		c2.9,0,5.1,0.6,6.7,1.9c1.6,1.3,2.4,3.1,2.4,5.5c0,2.5-0.8,4.4-2.4,5.7s-3.8,2-6.7,2h-44v28.7h41c2.9,0,5.1,0.6,6.7,1.9
		c1.6,1.3,2.4,3.2,2.4,5.6s-0.8,4.2-2.4,5.5c-1.6,1.3-3.8,1.9-6.7,1.9h-41v30.5h44c2.9,0,5.1,0.7,6.7,2c1.6,1.3,2.4,3.2,2.4,5.7
		c0,2.4-0.8,4.2-2.4,5.5s-3.8,1.9-6.7,1.9h-53.4C193.3,335,191,334.2,189.4,332.6z"/>
	<path class="st1" d="M358.1,327c0,2.3-0.9,4.3-2.6,6s-3.8,2.6-6.1,2.6c-2.5,0-4.7-1-6.8-3.1l-49.3-46.2v40c0,2.9-0.9,5.2-2.6,7
		s-4.1,2.7-7,2.7s-5.2-0.9-6.9-2.7c-1.7-1.8-2.6-4.1-2.6-7v-86.9c0-2.9,0.9-5.2,2.6-6.9s4-2.6,6.9-2.6c3,0,5.3,0.9,7,2.6
		c1.7,1.7,2.6,4,2.6,6.9v38l47.7-44.7c1.8-1.8,3.8-2.7,6.1-2.7c2.3,0,4.3,0.9,6,2.6c1.7,1.7,2.6,3.7,2.6,6s-1,4.3-3,6.2l-39.8,36.4
		l42.3,39.4C357.1,322.5,358.1,324.6,358.1,327z"/>
</g>
</svg>
