<?xml version="1.0" encoding="utf-8"?>
<!-- Generator: Adobe Illustrator 22.0.1, SVG Export Plug-In . SVG Version: 6.00 Build 0)  -->
<svg version="1.1" id="Lag_1" xmlns="http://www.w3.org/2000/svg" xmlns:xlink="http://www.w3.org/1999/xlink" x="0px" y="0px"
	 viewBox="0 0 512 512" style="enable-background:new 0 0 512 512;" xml:space="preserve">
<style type="text/css">
	.st0{fill:#BCC3CF;}
	.st1{fill:#C7CEDA;}
</style>
<path class="st0" d="M464,128H272l-64-64H48C21.5,64,0,85.5,0,112v288c0,26.5,21.5,48,48,48h416c26.5,0,48-21.5,48-48V176
	C512,149.5,490.5,128,464,128z"/>
<g>
	<path class="st1" d="M180.2,327c0,2.3-0.9,4.3-2.6,6c-1.7,1.7-3.8,2.6-6.1,2.6c-2.5,0-4.7-1-6.8-3.1l-49.3-46.2v40
		c0,2.9-0.9,5.2-2.6,7s-4.1,2.7-7,2.7s-5.2-0.9-6.9-2.7c-1.7-1.8-2.6-4.1-2.6-7v-86.9c0-2.9,0.9-5.2,2.6-6.9s4-2.6,6.9-2.6
		c3,0,5.3,0.9,7,2.6c1.7,1.7,2.6,4,2.6,6.9v38l47.7-44.7c1.8-1.8,3.8-2.7,6.1-2.7s4.3,0.9,6,2.6c1.7,1.7,2.6,3.7,2.6,6s-1,4.3-3,6.2
		L135,281.2l42.3,39.4C179.2,322.5,180.2,324.6,180.2,327z"/>
	<path class="st1" d="M188.2,300.8c-1.4-1.3-2.1-3.1-2.1-5.3c0-2.3,0.7-4.1,2.1-5.4c1.4-1.3,3.6-2,6.4-2h30.5c2.9,0,5,0.7,6.4,2
		s2.1,3.1,2.1,5.4s-0.7,4-2.1,5.3c-1.4,1.3-3.6,1.9-6.4,1.9h-30.5C191.8,302.7,189.7,302.1,188.2,300.8z"/>
	<path class="st1" d="M255.9,333.2c-1.7-1.8-2.6-4.1-2.6-7v-86.9c0-2.9,0.9-5.2,2.6-6.9s4-2.6,6.9-2.6c3,0,5.3,0.9,7,2.6
		c1.7,1.7,2.6,4,2.6,6.9v86.9c0,2.9-0.9,5.2-2.6,7s-4.1,2.7-7,2.7C259.9,335.9,257.6,335,255.9,333.2z"/>
	<path class="st1" d="M322,333.2c-1.7-1.7-2.6-4-2.6-6.9v-79.9h-26.9c-5.9,0-8.9-2.6-8.9-7.8s3-7.8,8.9-7.8h73
		c5.9,0,8.9,2.6,8.9,7.8s-3,7.8-8.9,7.8h-26.9v79.9c0,2.9-0.9,5.2-2.6,6.9c-1.7,1.7-4,2.6-6.9,2.6
		C326.1,335.7,323.7,334.9,322,333.2z"/>
</g>
</svg>
