<?xml version="1.0" encoding="utf-8"?>
<!-- Generator: Adobe Illustrator 22.0.1, SVG Export Plug-In . SVG Version: 6.00 Build 0)  -->
<svg version="1.1" id="Lag_1" xmlns="http://www.w3.org/2000/svg" xmlns:xlink="http://www.w3.org/1999/xlink" x="0px" y="0px"
	 viewBox="0 0 512 512" style="enable-background:new 0 0 512 512;" xml:space="preserve">
<style type="text/css">
	.st0{fill:#949BA7;}
	.st1{fill:#C7CEDA;}
</style>
<path class="st0" d="M464,128H272l-64-64H48C21.5,64,0,85.5,0,112v288c0,26.5,21.5,48,48,48h416c26.5,0,48-21.5,48-48V176
	C512,149.5,490.5,128,464,128z"/>
<g>
	<path class="st1" d="M110.8,333.3c-6.8-2-12.3-4.8-16.5-8.2c-2.3-1.7-3.4-4-3.4-7.1c0-2.1,0.6-3.9,1.9-5.4c1.2-1.5,2.7-2.3,4.4-2.3
		c1.8,0,3.8,0.7,6.1,2.1c4.2,3.1,8.7,5.3,13.3,6.7c4.6,1.4,9.8,2.1,15.4,2.1c7.2,0,12.7-1.3,16.6-3.8c3.8-2.5,5.8-6.2,5.8-11
		c0-3.7-1.8-6.6-5.4-8.7c-3.6-2-9.6-4-18-5.8c-8.7-1.9-15.7-4-21.2-6.5c-5.4-2.5-9.5-5.6-12.3-9.5c-2.8-3.8-4.1-8.7-4.1-14.7
		c0-6.1,1.7-11.6,5.2-16.4c3.5-4.8,8.3-8.6,14.4-11.3c6.2-2.7,13.1-4.1,20.8-4.1c14.1,0,25.6,3.8,34.5,11.2c1.3,1.1,2.2,2.1,2.7,3.2
		c0.5,1,0.8,2.3,0.8,3.9c0,2.1-0.6,3.9-1.9,5.4c-1.2,1.5-2.7,2.3-4.4,2.3c-1,0-1.9-0.1-2.7-0.4c-0.8-0.3-1.9-0.8-3.3-1.6
		c-4-3-8-5.2-11.8-6.6c-3.8-1.4-8.5-2.1-14-2.1c-6.7,0-12,1.4-15.9,4.1c-3.9,2.7-5.8,6.5-5.8,11.3c0,4,1.7,7.2,5.2,9.3
		c3.5,2.2,9.3,4.2,17.6,6.1c8.8,2,15.9,4.2,21.4,6.6s9.7,5.5,12.6,9.3c2.9,3.8,4.4,8.4,4.4,14.1c0,6.1-1.7,11.5-5.1,16.2
		c-3.4,4.7-8.2,8.3-14.4,11c-6.2,2.6-13.2,3.9-21.2,3.9C124.8,336.3,117.6,335.3,110.8,333.3z"/>
	<path class="st1" d="M285.1,327.5c0,2.3-0.9,4.2-2.7,5.8c-1.8,1.6-3.9,2.4-6.3,2.4c-1.6,0-3.1-0.4-4.4-1.3
		c-1.4-0.8-2.5-2.1-3.3-3.9l-8.9-19.8h-52.1l-8.9,19.8c-0.8,1.8-1.9,3.1-3.3,3.9c-1.4,0.8-2.9,1.3-4.6,1.3c-2.3,0-4.3-0.8-6.2-2.4
		s-2.8-3.5-2.8-5.8c0-1.3,0.3-2.6,0.9-3.8l40.8-87.8c0.9-2,2.2-3.5,4.1-4.5c1.8-1,3.8-1.6,5.8-1.6s4,0.5,5.8,1.6
		c1.8,1,3.2,2.5,4.1,4.5l41,87.8C284.8,324.9,285.1,326.2,285.1,327.5z M213.9,295.8H253l-19.5-44L213.9,295.8z"/>
	<path class="st1" d="M398.8,232.5c1.7,1.7,2.5,4,2.5,6.9V327c0,2.8-0.8,4.9-2.4,6.5s-3.7,2.4-6.2,2.4c-2.6,0-4.6-0.8-6.1-2.4
		s-2.2-3.7-2.2-6.5v-61l-25.2,47.7c-1.2,2.2-2.5,3.8-3.8,4.8c-1.4,1-3,1.6-4.9,1.6s-3.5-0.5-4.9-1.5s-2.7-2.6-3.8-4.9l-25.3-46.9
		V327c0,2.7-0.8,4.8-2.3,6.4s-3.6,2.4-6.1,2.4c-2.6,0-4.6-0.8-6.1-2.4s-2.2-3.7-2.2-6.5v-87.6c0-2.9,0.8-5.2,2.4-6.9
		s3.8-2.6,6.6-2.6c3.8,0,6.9,2.1,9,6.4l32.9,62.6l32.7-62.6c2.2-4.2,5.1-6.4,8.7-6.4C394.9,229.9,397.1,230.8,398.8,232.5z"/>
</g>
</svg>
