<?xml version="1.0" encoding="utf-8"?>
<!-- Generator: Adobe Illustrator 22.0.1, SVG Export Plug-In . SVG Version: 6.00 Build 0)  -->
<svg version="1.1" id="Lag_1" xmlns="http://www.w3.org/2000/svg" xmlns:xlink="http://www.w3.org/1999/xlink" x="0px" y="0px"
	 viewBox="0 0 512 512" style="enable-background:new 0 0 512 512;" xml:space="preserve">
<style type="text/css">
	.st0{fill:#949BA7;}
	.st1{fill:#C7CEDA;}
</style>
<path class="st0" d="M464,128H272l-64-64H48C21.5,64,0,85.5,0,112v288c0,26.5,21.5,48,48,48h416c26.5,0,48-21.5,48-48V176
	C512,149.5,490.5,128,464,128z"/>
<g>
	<path class="st1" d="M174.5,290.3c3.3,4.4,5,9.9,5,16.3c0,8.9-3.2,15.8-9.5,20.9c-6.4,5-15.1,7.5-26.3,7.5h-38.2
		c-2.9,0-5.1-0.8-6.7-2.4s-2.4-3.8-2.4-6.7v-86.3c0-2.9,0.8-5.1,2.4-6.7c1.6-1.6,3.9-2.4,6.7-2.4h36.7c10.9,0,19.4,2.4,25.5,7.2
		c6.2,4.8,9.3,11.5,9.3,20.1c0,5.5-1.5,10.3-4.4,14.4c-2.9,4-6.9,7-12.1,8.9C166.5,282.8,171.2,285.9,174.5,290.3z M114.9,274.6H139
		c13.1,0,19.7-4.9,19.7-14.7c0-4.9-1.6-8.6-4.9-11c-3.3-2.4-8.2-3.6-14.8-3.6h-24.1V274.6z M156.6,316.5c3.2-2.5,4.7-6.3,4.7-11.5
		s-1.6-9.1-4.8-11.7s-8.2-3.8-15-3.8h-26.6v30.8h26.6C148.4,320.2,153.5,319,156.6,316.5z"/>
	<path class="st1" d="M199.9,333.2c-1.7-1.8-2.6-4.1-2.6-7v-86.9c0-2.9,0.9-5.2,2.6-6.9c1.7-1.7,4-2.6,6.9-2.6c3,0,5.3,0.9,7,2.6
		c1.7,1.7,2.6,4,2.6,6.9v86.9c0,2.9-0.9,5.2-2.6,7c-1.7,1.8-4.1,2.7-7,2.7C203.9,335.9,201.6,335,199.9,333.2z"/>
	<path class="st1" d="M259,329.8c-7.5-4.3-13.2-10.6-17.2-18.6c-4-8.1-6.1-17.6-6.1-28.4c0-10.9,2-20.3,6-28.3
		c4-8,9.7-14.2,17.2-18.6c7.5-4.3,16.3-6.5,26.5-6.5s19,2.2,26.4,6.5s13.2,10.5,17.2,18.6c4,8,6,17.5,6,28.3c0,10.9-2,20.3-6.1,28.4
		c-4,8.1-9.8,14.3-17.2,18.6c-7.5,4.3-16.2,6.5-26.3,6.5C275.2,336.3,266.4,334.2,259,329.8z M307.8,311.2
		c5.4-6.6,8.1-16.1,8.1-28.4s-2.7-21.8-8.1-28.3c-5.4-6.6-12.9-9.8-22.4-9.8c-9.7,0-17.2,3.3-22.6,9.8c-5.4,6.6-8.1,16-8.1,28.3
		c0,12.3,2.7,21.8,8.1,28.4s12.9,9.9,22.6,9.9C295,321.1,302.4,317.8,307.8,311.2z"/>
</g>
</svg>
