<?xml version="1.0" encoding="utf-8"?>
<!-- Generator: Adobe Illustrator 22.0.1, SVG Export Plug-In . SVG Version: 6.00 Build 0)  -->
<svg version="1.1" id="Lag_1" xmlns="http://www.w3.org/2000/svg" xmlns:xlink="http://www.w3.org/1999/xlink" x="0px" y="0px"
	 viewBox="0 0 512 512" style="enable-background:new 0 0 512 512;" xml:space="preserve">
<style type="text/css">
	.st0{fill:#323437;}
	.st1{fill:#2B2D31;}
</style>
<path class="st0" d="M464,128H272l-64-64H48C21.5,64,0,85.5,0,112v288c0,26.5,21.5,48,48,48h416c26.5,0,48-21.5,48-48V176
	C512,149.5,490.5,128,464,128z"/>
<g>
	<path class="st1" d="M98.8,333.2c-1.7-1.8-2.6-4.1-2.6-7v-86.6c0-2.9,0.8-5.1,2.4-6.7c1.6-1.6,3.9-2.4,6.7-2.4h51.9
		c6,0,9,2.6,9,7.7c0,5-3,7.5-9,7.5H115v28.4h39.4c6,0,9,2.6,9,7.7c0,5-3,7.5-9,7.5H115v36.7c0,2.9-0.8,5.2-2.5,7
		c-1.7,1.8-3.9,2.7-6.8,2.7C102.9,335.9,100.6,335,98.8,333.2z"/>
	<path class="st1" d="M252.1,229.9c2.3,0,4.3,0.9,6.1,2.6c1.8,1.7,2.7,3.8,2.7,6.1c0,2-0.7,3.8-2.2,5.6l-33.6,41v41
		c0,3.1-0.9,5.4-2.7,7.1c-1.8,1.7-4,2.5-6.8,2.5c-2.9,0-5.2-0.8-7-2.5s-2.7-4-2.7-7.1v-41l-33.6-41c-1.5-1.8-2.2-3.6-2.2-5.6
		c0-2.4,0.9-4.4,2.7-6.1c1.8-1.7,3.8-2.6,6.1-2.6c2.5,0,4.6,1.1,6.4,3.3l30.3,37.6l30.2-37.6C247.5,231,249.6,229.9,252.1,229.9z"/>
	<path class="st1" d="M284.1,333.3c-6.8-2-12.3-4.8-16.5-8.2c-2.3-1.7-3.4-4-3.4-7.1c0-2.1,0.6-3.9,1.8-5.4c1.2-1.5,2.7-2.3,4.4-2.3
		c1.8,0,3.8,0.7,6.1,2.1c4.2,3.1,8.7,5.3,13.3,6.7c4.6,1.4,9.8,2.1,15.4,2.1c7.2,0,12.7-1.3,16.6-3.8c3.8-2.5,5.8-6.2,5.8-11
		c0-3.7-1.8-6.6-5.4-8.7c-3.6-2-9.6-4-18-5.8c-8.7-1.9-15.7-4-21.2-6.5c-5.4-2.5-9.5-5.6-12.3-9.5c-2.8-3.8-4.1-8.7-4.1-14.7
		c0-6.1,1.7-11.6,5.2-16.4c3.5-4.8,8.3-8.6,14.4-11.3c6.2-2.7,13.1-4.1,20.8-4.1c14.1,0,25.6,3.8,34.5,11.2c1.3,1.1,2.2,2.1,2.7,3.2
		c0.5,1,0.8,2.3,0.8,3.9c0,2.1-0.6,3.9-1.8,5.4c-1.2,1.5-2.7,2.3-4.4,2.3c-1,0-1.9-0.1-2.7-0.4c-0.8-0.3-2-0.8-3.3-1.6
		c-4-3-8-5.2-11.8-6.6c-3.8-1.4-8.5-2.1-14-2.1c-6.7,0-12,1.4-15.9,4.1c-3.9,2.7-5.8,6.5-5.8,11.3c0,4,1.7,7.2,5.2,9.3
		c3.5,2.2,9.3,4.2,17.6,6.1c8.8,2,15.9,4.2,21.4,6.6c5.5,2.4,9.7,5.5,12.6,9.3c2.9,3.8,4.4,8.4,4.4,14.1c0,6.1-1.7,11.5-5.1,16.2
		c-3.4,4.7-8.2,8.3-14.4,11c-6.2,2.6-13.2,3.9-21.2,3.9C298.1,336.3,290.9,335.3,284.1,333.3z"/>
</g>
</svg>
