<?xml version="1.0" encoding="utf-8"?>
<!-- Generator: Adobe Illustrator 22.0.1, SVG Export Plug-In . SVG Version: 6.00 Build 0)  -->
<svg version="1.1" id="Lag_1" xmlns="http://www.w3.org/2000/svg" xmlns:xlink="http://www.w3.org/1999/xlink" x="0px" y="0px"
	 viewBox="0 0 512 512" style="enable-background:new 0 0 512 512;" xml:space="preserve">
<style type="text/css">
	.st0{fill:#949BA7;}
	.st1{fill:#C7CEDA;}
</style>
<path class="st0" d="M464,128H272l-64-64H48C21.5,64,0,85.5,0,112v288c0,26.5,21.5,48,48,48h416c26.5,0,48-21.5,48-48V176
	C512,149.5,490.5,128,464,128z"/>
<g>
	<path class="st1" d="M98.7,332.6c-1.6-1.6-2.4-3.8-2.4-6.7v-86.3c0-2.9,0.8-5.1,2.4-6.7c1.6-1.6,3.9-2.4,6.7-2.4h53.4
		c2.9,0,5.1,0.6,6.7,1.9c1.6,1.3,2.4,3.1,2.4,5.5c0,2.5-0.8,4.4-2.4,5.7c-1.6,1.3-3.8,2-6.7,2h-44v28.7h41c2.9,0,5.1,0.6,6.7,1.9
		c1.6,1.3,2.4,3.2,2.4,5.6s-0.8,4.2-2.4,5.5c-1.6,1.3-3.8,1.9-6.7,1.9h-41v30.5h44c2.9,0,5.1,0.7,6.7,2c1.6,1.3,2.4,3.2,2.4,5.7
		c0,2.4-0.8,4.2-2.4,5.5c-1.6,1.3-3.8,1.9-6.7,1.9h-53.4C102.6,335,100.3,334.2,98.7,332.6z"/>
	<path class="st1" d="M269,232.5c1.6,1.7,2.4,4,2.4,6.9v86.9c0,2.9-0.8,5.2-2.5,7s-3.8,2.7-6.5,2.7c-3.2,0-5.6-1.1-7.3-3.4l-54-70.3
		v64.1c0,2.9-0.8,5.2-2.4,7c-1.6,1.8-3.8,2.7-6.5,2.7c-2.8,0-4.9-0.9-6.5-2.7c-1.6-1.8-2.4-4.1-2.4-7v-86.9c0-2.9,0.8-5.2,2.5-6.9
		s3.9-2.6,6.7-2.6c3.1,0,5.4,1.1,7.1,3.4l53.9,70v-63.9c0-2.9,0.8-5.2,2.4-6.9c1.6-1.7,3.8-2.6,6.4-2.6
		C265.2,229.9,267.4,230.8,269,232.5z"/>
	<path class="st1" d="M378.9,280.6c1.4,1.3,2.1,3.1,2.1,5.3v31.8c0,4.5-0.6,7.7-1.8,9.6c-1.2,1.9-3.6,3.4-7.3,4.6
		c-3.9,1.4-8.5,2.5-13.8,3.3c-5.2,0.8-10.3,1.2-15.1,1.2c-10.8,0-20.1-2.1-28-6.4c-7.9-4.2-13.9-10.4-18.1-18.4s-6.3-17.6-6.3-28.8
		c0-11,2.1-20.4,6.3-28.5c4.2-8,10.1-14.2,17.8-18.5c7.7-4.3,16.8-6.4,27.2-6.4c13.9,0,25.3,3.8,34.2,11.2c1.2,1.1,2,2.2,2.6,3.3
		c0.5,1.1,0.8,2.4,0.8,3.8c0,2.2-0.6,4-1.8,5.5c-1.2,1.5-2.6,2.2-4.3,2.2c-1.1,0-2.1-0.2-3-0.5s-1.9-0.9-3.1-1.7
		c-4.3-3.1-8.4-5.2-12.1-6.4c-3.8-1.2-8-1.8-12.7-1.8c-10.8,0-18.9,3.2-24.3,9.5c-5.5,6.4-8.2,15.8-8.2,28.3
		c0,25.7,11.2,38.5,33.7,38.5c6.7,0,13.4-0.9,20.1-2.8v-26.2h-16.7c-2.4,0-4.2-0.6-5.6-1.8c-1.3-1.2-2-2.9-2-5c0-2.2,0.7-3.8,2-5
		s3.2-1.8,5.6-1.8h26.2C375.7,278.6,377.5,279.3,378.9,280.6z"/>
</g>
</svg>
