<?xml version="1.0" encoding="utf-8"?>
<!-- Generator: Adobe Illustrator 22.0.1, SVG Export Plug-In . SVG Version: 6.00 Build 0)  -->
<svg version="1.1" id="Lag_1" xmlns="http://www.w3.org/2000/svg" xmlns:xlink="http://www.w3.org/1999/xlink" x="0px" y="0px"
	 viewBox="0 0 576 512" style="enable-background:new 0 0 576 512;" xml:space="preserve">
<style type="text/css">
	.st0{fill:#BCC3CF;}
	.st1{fill:#C7CEDA;}
</style>
<path class="st0" d="M572.7,292.1l-72.4,124.2C488.8,435.9,467.8,448,445,448H45c-18.5,0-30.1-20.1-20.7-36.1l72.4-124.2
	c11.5-19.7,32.5-31.8,55.3-31.8h400C570.5,256,582,276.1,572.7,292.1z M152,224h328v-48c0-26.5-21.5-48-48-48H272l-64-64H48
	C21.5,64,0,85.5,0,112v278l69.1-118.4C86.2,242.3,118,224,152,224z"/>
<g>
	<path class="st1" d="M67.3,151.7c1.4,1.9,2.1,4.3,2.1,7.1c0,3.9-1.4,7-4.3,9.3s-6.7,3.5-11.6,3.5c-2.8,0-5.4-0.4-8-1.3
		s-4.7-2-6.5-3.6c-1-0.9-1.5-1.9-1.5-3c0-0.9,0.3-1.7,0.8-2.4s1.2-1,1.9-1c0.4,0,0.8,0.1,1.2,0.2c0.3,0.1,0.8,0.4,1.4,0.7
		c1.8,1.2,3.5,2.1,5.1,2.8c1.6,0.6,3.4,1,5.3,1c2.8,0,4.9-0.6,6.3-1.7c1.4-1.1,2-2.8,2-5.2c0-2.3-0.7-3.9-2.1-5
		c-1.4-1.1-3.6-1.6-6.6-1.6h-3.6c-1,0-1.7-0.3-2.3-1c-0.5-0.7-0.8-1.4-0.8-2.3c0-0.9,0.3-1.7,0.8-2.3s1.3-1,2.3-1h2.6
		c5.8,0,8.8-2.2,8.8-6.6c0-2-0.6-3.6-1.9-4.7c-1.2-1.1-2.9-1.7-5.1-1.7c-3.1,0-6.4,1.2-10,3.7c-0.6,0.3-1.1,0.6-1.4,0.7
		c-0.3,0.1-0.7,0.2-1.2,0.2c-0.7,0-1.4-0.3-1.9-1s-0.8-1.5-0.8-2.4c0-0.6,0.1-1.2,0.4-1.6c0.2-0.4,0.6-0.9,1.1-1.4
		c1.8-1.5,3.9-2.7,6.4-3.6s5-1.3,7.6-1.3c4.4,0,8,1.1,10.6,3.3c2.6,2.2,3.9,5.1,3.9,8.7c0,2.5-0.7,4.6-2,6.5s-3,3.2-5.3,4.1
		C63.8,148.5,65.9,149.8,67.3,151.7z"/>
	<path class="st1" d="M79.3,170c-0.7-0.7-1.1-1.6-1.1-2.9v-37.3c0-1.2,0.4-2.2,1.1-2.9c0.7-0.7,1.7-1,2.9-1h12.7
		c7.4,0,13.1,2,17.2,5.9c4.1,3.9,6.1,9.5,6.1,16.6c0,7.2-2,12.7-6.1,16.7c-4.1,3.9-9.8,5.9-17.2,5.9H82.2C81,171,80,170.7,79.3,170z
		 M94.4,164.3c10.4,0,15.6-5.3,15.6-15.9c0-10.5-5.2-15.8-15.6-15.8h-7.9v31.7H94.4z"/>
	<path class="st1" d="M126.2,156.2c-0.6-0.6-0.9-1.3-0.9-2.3s0.3-1.8,0.9-2.3c0.6-0.6,1.5-0.9,2.8-0.9h13.2c1.2,0,2.2,0.3,2.8,0.9
		c0.6,0.6,0.9,1.4,0.9,2.3c0,1-0.3,1.8-0.9,2.3c-0.6,0.6-1.5,0.8-2.8,0.8H129C127.7,157,126.8,156.8,126.2,156.2z"/>
	<path class="st1" d="M155.4,170.3c-0.7-0.7-1.1-1.8-1.1-3v-37.4c0-1.2,0.4-2.2,1.1-2.9c0.7-0.7,1.7-1,2.9-1H174
		c4.8,0,8.6,1.2,11.3,3.6c2.7,2.4,4,5.8,4,10.1s-1.3,7.7-4,10.2s-6.4,3.6-11.3,3.6h-11.5v13.8c0,1.3-0.4,2.3-1.1,3
		c-0.7,0.7-1.8,1.1-3,1.1C157.2,171.4,156.2,171,155.4,170.3z M173,147.1c5.7,0,8.5-2.5,8.5-7.4s-2.8-7.4-8.5-7.4h-10.4v14.8
		L173,147.1L173,147.1z"/>
</g>
</svg>
