<?xml version="1.0" encoding="utf-8"?>
<!-- Generator: Adobe Illustrator 22.0.1, SVG Export Plug-In . SVG Version: 6.00 Build 0)  -->
<svg version="1.1" id="Lag_1" xmlns="http://www.w3.org/2000/svg" xmlns:xlink="http://www.w3.org/1999/xlink" x="0px" y="0px"
	 viewBox="0 0 512 512" style="enable-background:new 0 0 512 512;" xml:space="preserve">
<style type="text/css">
	.st0{fill:#BCC3CF;}
	.st1{fill:#C7CEDA;}
</style>
<path class="st0" d="M464,128H272l-64-64H48C21.5,64,0,85.5,0,112v288c0,26.5,21.5,48,48,48h416c26.5,0,48-21.5,48-48V176
	C512,149.5,490.5,128,464,128z"/>
<g>
	<path class="st1" d="M180.2,327c0,2.3-0.9,4.3-2.6,6c-1.7,1.7-3.8,2.6-6.1,2.6c-2.5,0-4.7-1-6.8-3.1l-49.3-46.2v40
		c0,2.9-0.9,5.2-2.6,7s-4.1,2.7-7,2.7s-5.2-0.9-6.9-2.7c-1.7-1.8-2.6-4.1-2.6-7v-86.9c0-2.9,0.9-5.2,2.6-6.9s4-2.6,6.9-2.6
		c3,0,5.3,0.9,7,2.6c1.7,1.7,2.6,4,2.6,6.9v38l47.7-44.7c1.8-1.8,3.8-2.7,6.1-2.7s4.3,0.9,6,2.6c1.7,1.7,2.6,3.7,2.6,6s-1,4.3-3,6.2
		L135,281.2l42.3,39.4C179.2,322.5,180.2,324.6,180.2,327z"/>
	<path class="st1" d="M196.4,332.6c-1.6-1.6-2.4-3.8-2.4-6.7v-86.3c0-2.9,0.8-5.1,2.4-6.7c1.6-1.6,3.9-2.4,6.7-2.4h53.4
		c2.9,0,5.1,0.6,6.7,1.9c1.6,1.3,2.4,3.1,2.4,5.5c0,2.5-0.8,4.4-2.4,5.7s-3.8,2-6.7,2h-44v28.7h41c2.9,0,5.1,0.6,6.7,1.9
		s2.4,3.2,2.4,5.6s-0.8,4.2-2.4,5.5s-3.8,1.9-6.7,1.9h-41v30.5h44c2.9,0,5.1,0.7,6.7,2s2.4,3.2,2.4,5.7c0,2.4-0.8,4.2-2.4,5.5
		s-3.8,1.9-6.7,1.9h-53.4C200.2,335,198,334.2,196.4,332.6z"/>
	<path class="st1" d="M380.4,232.5c1.7,1.7,2.5,4,2.5,6.9V327c0,2.8-0.8,4.9-2.4,6.5s-3.7,2.4-6.2,2.4c-2.6,0-4.6-0.8-6.1-2.4
		s-2.2-3.7-2.2-6.5v-61l-25.2,47.7c-1.2,2.2-2.5,3.8-3.8,4.8c-1.4,1-3,1.6-4.9,1.6s-3.5-0.5-4.9-1.5s-2.7-2.6-3.8-4.9l-25.3-46.9
		V327c0,2.7-0.8,4.8-2.3,6.4s-3.6,2.4-6.1,2.4c-2.6,0-4.6-0.8-6.1-2.4s-2.2-3.7-2.2-6.5v-87.6c0-2.9,0.8-5.2,2.4-6.9
		s3.8-2.6,6.6-2.6c3.8,0,6.9,2.1,9,6.4l32.9,62.6l32.7-62.6c2.2-4.2,5.1-6.4,8.7-6.4C376.5,229.9,378.7,230.8,380.4,232.5z"/>
	<path class="st1" d="M408.2,333.2c-1.7-1.8-2.6-4.1-2.6-7v-86.9c0-2.9,0.9-5.2,2.6-6.9s4-2.6,6.9-2.6c3,0,5.3,0.9,7,2.6
		c1.7,1.7,2.6,4,2.6,6.9v86.9c0,2.9-0.9,5.2-2.6,7s-4.1,2.7-7,2.7C412.2,335.9,409.9,335,408.2,333.2z"/>
</g>
</svg>
