<?xml version="1.0" encoding="utf-8"?>
<!-- Generator: Adobe Illustrator 22.0.1, SVG Export Plug-In . SVG Version: 6.00 Build 0)  -->
<svg version="1.1" id="Lag_1" xmlns="http://www.w3.org/2000/svg" xmlns:xlink="http://www.w3.org/1999/xlink" x="0px" y="0px"
	 viewBox="0 0 576 512" style="enable-background:new 0 0 576 512;" xml:space="preserve">
<style type="text/css">
	.st0{fill:#949BA7;}
	.st1{fill:#C7CEDA;}
</style>
<path class="st0" d="M572.7,292.1l-72.4,124.2C488.8,435.9,467.8,448,445,448H45c-18.5,0-30.1-20.1-20.7-36.1l72.4-124.2
	c11.5-19.7,32.5-31.8,55.3-31.8h400C570.5,256,582,276.1,572.7,292.1z M152,224h328v-48c0-26.5-21.5-48-48-48H272l-64-64H48
	C21.5,64,0,85.5,0,112v278l69.1-118.4C86.2,242.3,118,224,152,224z"/>
<g>
	<path class="st1" d="M41,170.2c-0.7-0.8-1.1-1.8-1.1-3v-37.4c0-1.2,0.4-2.2,1.1-2.9c0.7-0.7,1.7-1,2.9-1h22.5
		c2.6,0,3.9,1.1,3.9,3.3s-1.3,3.3-3.9,3.3H48v12.3h17c2.6,0,3.9,1.1,3.9,3.3s-1.3,3.3-3.9,3.3H48v15.9c0,1.2-0.4,2.2-1.1,3
		c-0.7,0.8-1.7,1.2-2.9,1.2C42.7,171.4,41.7,171,41,170.2z"/>
	<path class="st1" d="M107.3,125.6c1,0,1.9,0.4,2.6,1.1c0.8,0.7,1.2,1.6,1.2,2.7c0,0.9-0.3,1.7-1,2.4l-14.5,17.7v17.7
		c0,1.3-0.4,2.3-1.2,3.1s-1.8,1.1-2.9,1.1c-1.2,0-2.2-0.4-3-1.1s-1.2-1.7-1.2-3.1v-17.7l-14.5-17.7c-0.6-0.8-1-1.6-1-2.4
		c0-1,0.4-1.9,1.2-2.7c0.8-0.7,1.6-1.1,2.6-1.1c1.1,0,2,0.5,2.8,1.4l13.1,16.3l13.1-16.3C105.3,126,106.2,125.6,107.3,125.6z"/>
	<path class="st1" d="M121.1,170.3c-2.9-0.9-5.3-2.1-7.1-3.6c-1-0.7-1.5-1.7-1.5-3.1c0-0.9,0.3-1.7,0.8-2.3c0.5-0.7,1.2-1,1.9-1
		c0.8,0,1.6,0.3,2.6,0.9c1.8,1.3,3.8,2.3,5.8,2.9c2,0.6,4.2,0.9,6.7,0.9c3.1,0,5.5-0.5,7.2-1.6s2.5-2.7,2.5-4.8
		c0-1.6-0.8-2.9-2.3-3.7c-1.6-0.9-4.2-1.7-7.8-2.5c-3.8-0.8-6.8-1.7-9.2-2.8c-2.3-1.1-4.1-2.4-5.3-4.1c-1.2-1.7-1.8-3.8-1.8-6.3
		c0-2.6,0.7-5,2.2-7.1s3.6-3.7,6.2-4.9c2.7-1.2,5.7-1.8,9-1.8c6.1,0,11.1,1.6,14.9,4.9c0.6,0.5,0.9,0.9,1.2,1.4
		c0.2,0.4,0.4,1,0.4,1.7c0,0.9-0.3,1.7-0.8,2.3c-0.5,0.7-1.2,1-1.9,1c-0.4,0-0.8-0.1-1.2-0.2c-0.4-0.1-0.8-0.4-1.4-0.7
		c-1.8-1.3-3.4-2.2-5.1-2.8c-1.6-0.6-3.7-0.9-6-0.9c-2.9,0-5.2,0.6-6.9,1.8c-1.7,1.2-2.5,2.8-2.5,4.9c0,1.8,0.7,3.1,2.2,4
		s4,1.8,7.6,2.6c3.8,0.9,6.9,1.8,9.2,2.8c2.4,1,4.2,2.4,5.4,4c1.3,1.6,1.9,3.6,1.9,6.1c0,2.6-0.7,5-2.2,7s-3.5,3.6-6.2,4.7
		c-2.7,1.1-5.7,1.7-9.2,1.7C127.1,171.6,124,171.1,121.1,170.3z"/>
</g>
</svg>
