<?xml version="1.0" encoding="utf-8"?>
<!-- Generator: Adobe Illustrator 22.0.1, SVG Export Plug-In . SVG Version: 6.00 Build 0)  -->
<svg version="1.1" id="Lag_1" xmlns="http://www.w3.org/2000/svg" xmlns:xlink="http://www.w3.org/1999/xlink" x="0px" y="0px"
	 viewBox="0 0 512 512" style="enable-background:new 0 0 512 512;" xml:space="preserve">
<style type="text/css">
	.st0{fill:#949BA7;}
	.st1{fill:#C7CEDA;}
</style>
<path class="st0" d="M464,128H272l-64-64H48C21.5,64,0,85.5,0,112v288c0,26.5,21.5,48,48,48h416c26.5,0,48-21.5,48-48V176
	C512,149.5,490.5,128,464,128z"/>
<g>
	<path class="st1" d="M159.7,290.4c3.3,4.4,5,9.8,5,16.4c0,9-3.3,16.1-9.9,21.5c-6.6,5.3-15.5,8-26.8,8c-6.4,0-12.6-1-18.5-3
		s-11-4.7-15.1-8.3c-2.3-2-3.4-4.3-3.4-7c0-2.2,0.6-4,1.9-5.6c1.2-1.5,2.7-2.3,4.4-2.3c1,0,1.9,0.2,2.7,0.5c0.8,0.3,1.9,0.9,3.3,1.7
		c4.1,2.8,8.1,4.9,11.8,6.4c3.7,1.5,7.8,2.2,12.3,2.2c6.5,0,11.3-1.3,14.5-3.9s4.7-6.6,4.7-11.9c0-5.2-1.7-9.1-5-11.6
		s-8.4-3.8-15.3-3.8h-8.4c-2.3,0-4-0.8-5.3-2.3c-1.2-1.5-1.9-3.3-1.9-5.3c0-2.1,0.6-3.8,1.9-5.3c1.2-1.5,3-2.2,5.3-2.2h5.9
		c13.5,0,20.3-5.1,20.3-15.2c0-4.7-1.4-8.4-4.3-11c-2.9-2.6-6.8-3.8-11.8-3.8c-7.2,0-14.9,2.9-23.1,8.6c-1.4,0.8-2.5,1.4-3.3,1.7
		s-1.7,0.5-2.7,0.5c-1.7,0-3.1-0.8-4.4-2.3c-1.2-1.5-1.9-3.4-1.9-5.5c0-1.5,0.3-2.7,0.8-3.8c0.5-1,1.4-2.1,2.6-3.2
		c4.1-3.5,9.1-6.2,14.9-8.2s11.7-3,17.7-3c10.3,0,18.4,2.5,24.5,7.5s9.1,11.7,9.1,20.1c-0.1,5.7-1.6,10.7-4.5,15s-7,7.4-12.2,9.4
		C151.6,283,156.4,286,159.7,290.4z"/>
	<path class="st1" d="M187.5,332.6c-1.6-1.6-2.4-3.8-2.4-6.7v-86.3c0-2.9,0.8-5.1,2.4-6.7c1.6-1.6,3.9-2.4,6.7-2.4h29.3
		c17.1,0,30.3,4.6,39.7,13.7c9.4,9.1,14.1,21.9,14.1,38.4c0,16.6-4.7,29.4-14.1,38.6c-9.4,9.1-22.7,13.7-39.7,13.7h-29.3
		C191.4,335,189.1,334.2,187.5,332.6z M222.3,319.5c24,0,36-12.2,36-36.7c0-24.4-12-36.6-36-36.6h-18.2v73.3H222.3z"/>
	<path class="st1" d="M295.8,300.8c-1.4-1.3-2.1-3.1-2.1-5.3c0-2.3,0.7-4.1,2.1-5.4s3.6-2,6.4-2h30.5c2.9,0,5,0.7,6.4,2
		s2.1,3.1,2.1,5.4s-0.7,4-2.1,5.3s-3.6,1.9-6.4,1.9h-30.5C299.4,302.7,297.3,302.1,295.8,300.8z"/>
	<path class="st1" d="M363.5,333.3c-1.7-1.7-2.6-4.1-2.6-7v-86.6c0-2.9,0.8-5.1,2.4-6.7c1.6-1.6,3.9-2.4,6.7-2.4h36.4
		c11.1,0,19.8,2.8,26,8.4c6.2,5.6,9.3,13.4,9.3,23.5c0,10.1-3.1,17.9-9.3,23.5c-6.2,5.6-14.9,8.4-26,8.4H380v31.8c0,3-0.9,5.3-2.6,7
		s-4.1,2.6-7,2.6C367.5,335.9,365.2,335,363.5,333.3z M404.1,279.8c13.1,0,19.7-5.7,19.7-17.2c0-11.4-6.6-17.2-19.7-17.2H380v34.3
		h24.1V279.8z"/>
</g>
</svg>
