<?xml version="1.0" encoding="utf-8"?>
<!-- Generator: Adobe Illustrator 22.0.1, SVG Export Plug-In . SVG Version: 6.00 Build 0)  -->
<svg version="1.1" id="Lag_1" xmlns="http://www.w3.org/2000/svg" xmlns:xlink="http://www.w3.org/1999/xlink" x="0px" y="0px"
	 viewBox="0 0 576 512" style="enable-background:new 0 0 576 512;" xml:space="preserve">
<style type="text/css">
	.st0{fill:#323437;}
	.st1{fill:#2B2D31;}
</style>
<path class="st0" d="M572.7,292.1l-72.4,124.2C488.8,435.9,467.8,448,445,448H45c-18.5,0-30.1-20.1-20.7-36.1l72.4-124.2
	c11.5-19.7,32.5-31.8,55.3-31.8h400C570.5,256,582,276.1,572.7,292.1z M152,224h328v-48c0-26.5-21.5-48-48-48H272l-64-64H48
	C21.5,64,0,85.5,0,112v278l69.1-118.4C86.2,242.3,118,224,152,224z"/>
<g>
	<path class="st1" d="M51.6,170.2c-0.7-0.7-1.1-1.7-1.1-3v-34.6H38.8c-2.6,0-3.8-1.1-3.8-3.4c0-2.3,1.3-3.4,3.8-3.4h31.6
		c2.6,0,3.8,1.1,3.8,3.4c0,2.3-1.3,3.4-3.8,3.4H58.7v34.6c0,1.2-0.4,2.2-1.1,3c-0.7,0.7-1.7,1.1-3,1.1
		C53.4,171.3,52.4,170.9,51.6,170.2z"/>
	<path class="st1" d="M80.2,170c-0.7-0.7-1.1-1.6-1.1-2.9v-37.3c0-1.2,0.4-2.2,1.1-2.9c0.7-0.7,1.7-1,2.9-1h23.1
		c1.2,0,2.2,0.3,2.9,0.8c0.7,0.6,1,1.3,1,2.4c0,1.1-0.3,1.9-1,2.5c-0.7,0.6-1.6,0.9-2.9,0.9h-19v12.4h17.7c1.2,0,2.2,0.3,2.9,0.8
		c0.7,0.6,1,1.4,1,2.4c0,1-0.3,1.8-1,2.4c-0.7,0.6-1.6,0.8-2.9,0.8H87.2v13.2h19c1.2,0,2.2,0.3,2.9,0.9c0.7,0.6,1,1.4,1,2.5
		c0,1-0.3,1.8-1,2.4c-0.7,0.6-1.6,0.8-2.9,0.8H83.1C81.8,171,80.9,170.7,80.2,170z"/>
	<path class="st1" d="M153.1,167.5c0,1-0.4,1.8-1.1,2.6c-0.7,0.7-1.6,1.1-2.7,1.1c-1.1,0-2-0.4-2.9-1.3l-21.3-20v17.3
		c0,1.2-0.4,2.2-1.1,3c-0.7,0.8-1.8,1.2-3,1.2c-1.2,0-2.2-0.4-3-1.2c-0.7-0.8-1.1-1.8-1.1-3v-37.6c0-1.2,0.4-2.2,1.1-3
		c0.7-0.7,1.7-1.1,3-1.1c1.3,0,2.3,0.4,3,1.1c0.7,0.7,1.1,1.7,1.1,3v16.4l20.6-19.3c0.8-0.8,1.6-1.2,2.6-1.2c1,0,1.8,0.4,2.6,1.1
		c0.7,0.7,1.1,1.6,1.1,2.6c0,1-0.4,1.9-1.3,2.7l-17.2,15.7l18.3,17C152.7,165.6,153.1,166.5,153.1,167.5z"/>
</g>
</svg>
