<?xml version="1.0" encoding="utf-8"?>
<!-- Generator: Adobe Illustrator 22.0.1, SVG Export Plug-In . SVG Version: 6.00 Build 0)  -->
<svg version="1.1" id="Lag_1" xmlns="http://www.w3.org/2000/svg" xmlns:xlink="http://www.w3.org/1999/xlink" x="0px" y="0px"
	 viewBox="0 0 576 512" style="enable-background:new 0 0 576 512;" xml:space="preserve">
<style type="text/css">
	.st0{fill:#949BA7;}
	.st1{fill:#C7CEDA;}
</style>
<path class="st0" d="M572.7,292.1l-72.4,124.2C488.8,435.9,467.8,448,445,448H45c-18.5,0-30.1-20.1-20.7-36.1l72.4-124.2
	c11.5-19.7,32.5-31.8,55.3-31.8h400C570.5,256,582,276.1,572.7,292.1z M152,224h328v-48c0-26.5-21.5-48-48-48H272l-64-64H48
	C21.5,64,0,85.5,0,112v278l69.1-118.4C86.2,242.3,118,224,152,224z"/>
<g>
	<path class="st1" d="M40.9,170c-0.7-0.7-1.1-1.6-1.1-2.9v-37.3c0-1.2,0.4-2.2,1.1-2.9c0.7-0.7,1.7-1,2.9-1h23.1
		c1.2,0,2.2,0.3,2.9,0.8c0.7,0.6,1,1.3,1,2.4s-0.3,1.9-1,2.5s-1.6,0.9-2.9,0.9h-19v12.4h17.7c1.2,0,2.2,0.3,2.9,0.8
		c0.7,0.6,1,1.4,1,2.4s-0.3,1.8-1,2.4c-0.7,0.6-1.6,0.8-2.9,0.8H47.9v13.2h19c1.2,0,2.2,0.3,2.9,0.9c0.7,0.6,1,1.4,1,2.5
		c0,1-0.3,1.8-1,2.4c-0.7,0.6-1.6,0.8-2.9,0.8H43.8C42.6,171,41.6,170.7,40.9,170z"/>
	<path class="st1" d="M114.6,126.7c0.7,0.7,1.1,1.7,1.1,3v37.6c0,1.2-0.4,2.2-1.1,3s-1.7,1.2-2.8,1.2c-1.4,0-2.4-0.5-3.1-1.5
		l-23.4-30.4v27.7c0,1.2-0.3,2.2-1,3s-1.6,1.2-2.8,1.2c-1.2,0-2.1-0.4-2.8-1.2c-0.7-0.8-1-1.8-1-3v-37.6c0-1.2,0.4-2.2,1.1-3
		c0.7-0.7,1.7-1.1,2.9-1.1c1.3,0,2.3,0.5,3.1,1.5l23.3,30.3v-27.6c0-1.2,0.4-2.2,1.1-3c0.7-0.7,1.6-1.1,2.8-1.1
		C112.9,125.6,113.9,125.9,114.6,126.7z"/>
	<path class="st1" d="M162.1,147.5c0.6,0.6,0.9,1.3,0.9,2.3v13.8c0,2-0.3,3.3-0.8,4.2c-0.5,0.8-1.6,1.5-3.1,2
		c-1.7,0.6-3.7,1.1-6,1.4c-2.3,0.3-4.4,0.5-6.5,0.5c-4.7,0-8.7-0.9-12.1-2.8c-3.4-1.8-6-4.5-7.8-8s-2.7-7.6-2.7-12.4
		c0-4.7,0.9-8.8,2.7-12.3c1.8-3.5,4.4-6.1,7.7-8c3.3-1.9,7.3-2.8,11.8-2.8c6,0,10.9,1.6,14.8,4.9c0.5,0.5,0.9,0.9,1.1,1.4
		c0.2,0.5,0.4,1,0.4,1.7c0,0.9-0.3,1.7-0.8,2.4c-0.5,0.6-1.1,1-1.9,1c-0.5,0-0.9-0.1-1.3-0.2c-0.4-0.1-0.8-0.4-1.3-0.7
		c-1.9-1.3-3.6-2.3-5.2-2.8c-1.6-0.5-3.5-0.8-5.5-0.8c-4.7,0-8.2,1.4-10.5,4.1c-2.4,2.8-3.6,6.8-3.6,12.3c0,11.1,4.9,16.6,14.6,16.6
		c2.9,0,5.8-0.4,8.7-1.2v-11.3h-7.2c-1,0-1.8-0.3-2.4-0.8c-0.6-0.5-0.9-1.2-0.9-2.2c0-0.9,0.3-1.7,0.9-2.2c0.6-0.5,1.4-0.8,2.4-0.8
		h11.3C160.7,146.6,161.5,146.9,162.1,147.5z"/>
</g>
</svg>
