<?xml version="1.0" encoding="utf-8"?>
<!-- Generator: Adobe Illustrator 22.0.1, SVG Export Plug-In . SVG Version: 6.00 Build 0)  -->
<svg version="1.1" id="Lag_1" xmlns="http://www.w3.org/2000/svg" xmlns:xlink="http://www.w3.org/1999/xlink" x="0px" y="0px"
	 viewBox="0 0 576 512" style="enable-background:new 0 0 576 512;" xml:space="preserve">
<style type="text/css">
	.st0{fill:#323437;}
	.st1{fill:#2B2D31;}
</style>
<path class="st0" d="M572.7,292.1l-72.4,124.2C488.8,435.9,467.8,448,445,448H45c-18.5,0-30.1-20.1-20.7-36.1l72.4-124.2
	c11.5-19.7,32.5-31.8,55.3-31.8h400C570.5,256,582,276.1,572.7,292.1z M152,224h328v-48c0-26.5-21.5-48-48-48H272l-64-64H48
	C21.5,64,0,85.5,0,112v278l69.1-118.4C86.2,242.3,118,224,152,224z"/>
<g>
	<path class="st1" d="M82.8,126.7c0.7,0.7,1.1,1.7,1.1,3v37.9c0,1.2-0.3,2.1-1,2.8c-0.7,0.7-1.6,1-2.7,1c-1.1,0-2-0.3-2.6-1
		c-0.6-0.7-1-1.6-1-2.8v-26.4l-10.9,20.6c-0.5,0.9-1.1,1.6-1.7,2.1c-0.6,0.4-1.3,0.7-2.1,0.7c-0.8,0-1.5-0.2-2.1-0.6
		c-0.6-0.4-1.2-1.1-1.7-2.1l-10.9-20.3v26c0,1.2-0.3,2.1-1,2.8c-0.7,0.7-1.5,1.1-2.7,1.1c-1.1,0-2-0.3-2.6-1c-0.6-0.7-1-1.6-1-2.8
		v-37.9c0-1.2,0.4-2.2,1.1-3c0.7-0.7,1.7-1.1,2.8-1.1c1.7,0,3,0.9,3.9,2.8L62,155.4l14.1-27.1c0.9-1.8,2.2-2.8,3.8-2.8
		C81.1,125.6,82.1,125.9,82.8,126.7z"/>
	<path class="st1" d="M135,167.7c0,1-0.4,1.8-1.2,2.5c-0.8,0.7-1.7,1-2.7,1c-0.7,0-1.3-0.2-1.9-0.5c-0.6-0.4-1.1-0.9-1.4-1.7
		l-3.8-8.6h-22.5l-3.8,8.6c-0.3,0.8-0.8,1.3-1.4,1.7c-0.6,0.4-1.3,0.5-2,0.5c-1,0-1.9-0.3-2.7-1c-0.8-0.7-1.2-1.5-1.2-2.5
		c0-0.6,0.1-1.1,0.4-1.7l17.7-38c0.4-0.9,1-1.5,1.8-2c0.8-0.4,1.6-0.7,2.5-0.7s1.7,0.2,2.5,0.7c0.8,0.4,1.4,1.1,1.8,2l17.7,38
		C134.8,166.6,135,167.2,135,167.7z M104.2,154h16.9l-8.4-19L104.2,154z"/>
	<path class="st1" d="M147.4,170.2c-0.7-0.7-1.1-1.7-1.1-3v-34.6h-11.6c-2.6,0-3.8-1.1-3.8-3.4c0-2.3,1.3-3.4,3.8-3.4h31.6
		c2.6,0,3.8,1.1,3.8,3.4c0,2.3-1.3,3.4-3.8,3.4h-11.6v34.6c0,1.2-0.4,2.2-1.1,3c-0.7,0.7-1.7,1.1-3,1.1
		C149.1,171.3,148.1,170.9,147.4,170.2z"/>
</g>
</svg>
