<?xml version="1.0" encoding="utf-8"?>
<!-- Generator: Adobe Illustrator 22.0.1, SVG Export Plug-In . SVG Version: 6.00 Build 0)  -->
<svg version="1.1" id="Lag_1" xmlns="http://www.w3.org/2000/svg" xmlns:xlink="http://www.w3.org/1999/xlink" x="0px" y="0px"
	 viewBox="0 0 512 512" style="enable-background:new 0 0 512 512;" xml:space="preserve">
<style type="text/css">
	.st0{fill:#949BA7;}
	.st1{fill:#C7CEDA;}
</style>
<path class="st0" d="M464,128H272l-64-64H48C21.5,64,0,85.5,0,112v288c0,26.5,21.5,48,48,48h416c26.5,0,48-21.5,48-48V176
	C512,149.5,490.5,128,464,128z"/>
<g>
	<path class="st1" d="M98.8,333.3c-1.7-1.7-2.6-4.1-2.6-7v-86.6c0-2.9,0.8-5.1,2.4-6.7c1.6-1.6,3.9-2.4,6.7-2.4h36.4
		c11.1,0,19.8,2.8,26,8.4c6.2,5.6,9.3,13.4,9.3,23.5c0,10.1-3.1,17.9-9.3,23.5s-14.9,8.4-26,8.4h-26.5v31.8c0,3-0.9,5.3-2.6,7
		s-4.1,2.6-7,2.6C102.9,335.9,100.6,335,98.8,333.3z M139.5,279.8c13.1,0,19.7-5.7,19.7-17.2c0-11.4-6.6-17.2-19.7-17.2h-24.1v34.3
		h24.1V279.8z"/>
	<path class="st1" d="M279.2,328.2c0,2.3-0.9,4.1-2.7,5.6c-1.8,1.5-4,2.2-6.4,2.2c-1.6,0-3.1-0.4-4.5-1.1s-2.6-1.8-3.6-3.3
		l-19.7-29.9c-2-3.2-4.1-5.4-6.3-6.7c-2.2-1.3-5.1-1.9-8.7-1.9h-14.5v33.2c0,3-0.8,5.3-2.5,7s-3.9,2.6-6.8,2.6
		c-2.9,0-5.2-0.9-6.9-2.6s-2.6-4.1-2.6-7v-86.6c0-2.9,0.8-5.1,2.4-6.7c1.6-1.6,3.9-2.4,6.7-2.4h37c11.8,0,20.8,2.6,27,7.9
		c6.2,5.3,9.3,12.9,9.3,22.9c0,8.1-2.3,14.7-6.9,19.9s-11.1,8.5-19.5,10c2.9,0.7,5.4,1.9,7.5,3.7c2.2,1.8,4.3,4.2,6.4,7.4l13.5,20.6
		C278.6,324.8,279.2,326.5,279.2,328.2z M253.3,274.4c3.4-2.7,5-6.9,5-12.5c0-5.7-1.7-9.9-5-12.5c-3.4-2.6-8.6-3.9-15.8-3.9h-24.9
		v33h24.9C244.6,278.5,249.9,277.1,253.3,274.4z"/>
	<path class="st1" d="M316.1,329.8c-7.5-4.3-13.2-10.6-17.2-18.6c-4-8.1-6.1-17.6-6.1-28.4c0-10.9,2-20.3,6-28.3
		c4-8,9.7-14.2,17.2-18.6c7.5-4.3,16.3-6.5,26.5-6.5s19,2.2,26.4,6.5s13.2,10.5,17.2,18.6c4,8,6,17.5,6,28.3c0,10.9-2,20.3-6.1,28.4
		c-4,8.1-9.8,14.3-17.2,18.6c-7.5,4.3-16.2,6.5-26.3,6.5C332.4,336.3,323.5,334.2,316.1,329.8z M364.9,311.2
		c5.4-6.6,8.1-16.1,8.1-28.4s-2.7-21.8-8.1-28.3c-5.4-6.6-12.9-9.8-22.4-9.8c-9.7,0-17.2,3.3-22.6,9.8c-5.4,6.6-8.1,16-8.1,28.3
		c0,12.3,2.7,21.8,8.1,28.4s12.9,9.9,22.6,9.9C352.1,321.1,359.6,317.8,364.9,311.2z"/>
</g>
</svg>
