<?xml version="1.0" encoding="utf-8"?>
<!-- Generator: Adobe Illustrator 22.0.1, SVG Export Plug-In . SVG Version: 6.00 Build 0)  -->
<svg version="1.1" id="Lag_1" xmlns="http://www.w3.org/2000/svg" xmlns:xlink="http://www.w3.org/1999/xlink" x="0px" y="0px"
	 viewBox="0 0 576 512" style="enable-background:new 0 0 576 512;" xml:space="preserve">
<style type="text/css">
	.st0{fill:#949BA7;}
	.st1{fill:#C7CEDA;}
</style>
<path class="st0" d="M572.7,292.1l-72.4,124.2C488.8,435.9,467.8,448,445,448H45c-18.5,0-30.1-20.1-20.7-36.1l72.4-124.2
	c11.5-19.7,32.5-31.8,55.3-31.8h400C570.5,256,582,276.1,572.7,292.1z M152,224h328v-48c0-26.5-21.5-48-48-48H272l-64-64H48
	C21.5,64,0,85.5,0,112v278l69.1-118.4C86.2,242.3,118,224,152,224z"/>
<g>
	<path class="st1" d="M73.7,151.7c1.4,1.9,2.1,4.3,2.1,7c0,3.8-1.4,6.8-4.1,9c-2.8,2.2-6.5,3.3-11.4,3.3H43.8c-1.2,0-2.2-0.3-2.9-1
		s-1.1-1.6-1.1-2.9v-37.3c0-1.2,0.4-2.2,1.1-2.9c0.7-0.7,1.7-1,2.9-1h15.9c4.7,0,8.4,1,11,3.1c2.7,2.1,4,5,4,8.7
		c0,2.4-0.6,4.5-1.9,6.2c-1.3,1.8-3,3-5.2,3.8C70.2,148.4,72.3,149.8,73.7,151.7z M47.9,144.9h10.4c5.7,0,8.5-2.1,8.5-6.3
		c0-2.1-0.7-3.7-2.1-4.7s-3.5-1.5-6.4-1.5H47.9V144.9z M66,163c1.4-1.1,2-2.7,2-5s-0.7-3.9-2.1-5.1c-1.4-1.1-3.6-1.7-6.5-1.7H47.9
		v13.3h11.5C62.4,164.6,64.6,164.1,66,163z"/>
	<path class="st1" d="M84.7,170.2c-0.7-0.8-1.1-1.8-1.1-3v-37.6c0-1.2,0.4-2.2,1.1-3c0.7-0.7,1.7-1.1,3-1.1s2.3,0.4,3,1.1
		s1.1,1.7,1.1,3v37.6c0,1.2-0.4,2.2-1.1,3s-1.8,1.2-3,1.2C86.4,171.4,85.4,171,84.7,170.2z"/>
	<path class="st1" d="M110.2,168.8c-3.2-1.9-5.7-4.6-7.5-8.1s-2.6-7.6-2.6-12.3s0.9-8.8,2.6-12.3s4.2-6.2,7.5-8
		c3.2-1.9,7.1-2.8,11.5-2.8s8.2,0.9,11.4,2.8c3.2,1.9,5.7,4.6,7.4,8c1.7,3.5,2.6,7.6,2.6,12.3s-0.9,8.8-2.6,12.3
		c-1.8,3.5-4.2,6.2-7.5,8.1c-3.2,1.9-7,2.8-11.4,2.8C117.3,171.6,113.5,170.6,110.2,168.8z M131.4,160.7c2.3-2.9,3.5-7,3.5-12.3
		s-1.2-9.4-3.5-12.3c-2.3-2.8-5.6-4.3-9.7-4.3c-4.2,0-7.4,1.4-9.8,4.3c-2.3,2.8-3.5,6.9-3.5,12.3c0,5.3,1.2,9.4,3.5,12.3
		c2.3,2.9,5.6,4.3,9.8,4.3C125.8,165,129,163.6,131.4,160.7z"/>
</g>
</svg>
