<?xml version="1.0" encoding="utf-8"?>
<!-- Generator: Adobe Illustrator 22.0.1, SVG Export Plug-In . SVG Version: 6.00 Build 0)  -->
<svg version="1.1" id="Lag_1" xmlns="http://www.w3.org/2000/svg" xmlns:xlink="http://www.w3.org/1999/xlink" x="0px" y="0px"
	 viewBox="0 0 576 512" style="enable-background:new 0 0 576 512;" xml:space="preserve">
<style type="text/css">
	.st0{fill:#949BA7;}
	.st1{fill:#D1D8E4;}
</style>
<path class="st0" d="M572.7,292.1l-72.4,124.2C488.8,435.9,467.8,448,445,448H45c-18.5,0-30.1-20.1-20.7-36.1l72.4-124.2
	c11.5-19.7,32.5-31.8,55.3-31.8h400C570.5,256,582,276.1,572.7,292.1z M152,224h328v-48c0-26.5-21.5-48-48-48H272l-64-64H48
	C21.5,64,0,85.5,0,112v278l69.1-118.4C86.2,242.3,118,224,152,224z"/>
<g>
	<path class="st1" d="M40.9,170c-0.7-0.7-1.1-1.6-1.1-2.9v-37.3c0-1.2,0.4-2.2,1.1-2.9c0.7-0.7,1.7-1,2.9-1h12.7
		c7.4,0,13.1,2,17.2,5.9c4.1,3.9,6.1,9.5,6.1,16.6c0,7.2-2,12.7-6.1,16.7c-4.1,3.9-9.8,5.9-17.2,5.9H43.8
		C42.6,171,41.6,170.7,40.9,170z M56,164.3c10.4,0,15.6-5.3,15.6-15.9c0-10.5-5.2-15.8-15.6-15.8h-7.9v31.7H56z"/>
	<path class="st1" d="M128.2,167.7c0,1-0.4,1.8-1.2,2.5c-0.8,0.7-1.7,1-2.7,1c-0.7,0-1.3-0.2-1.9-0.5c-0.6-0.4-1.1-0.9-1.4-1.7
		l-3.8-8.6H94.6l-3.8,8.6c-0.3,0.8-0.8,1.3-1.4,1.7s-1.3,0.5-2,0.5c-1,0-1.9-0.3-2.7-1c-0.8-0.7-1.2-1.5-1.2-2.5
		c0-0.6,0.1-1.1,0.4-1.7l17.7-38c0.4-0.9,1-1.5,1.8-2c0.8-0.4,1.6-0.7,2.5-0.7s1.7,0.2,2.5,0.7c0.8,0.4,1.4,1.1,1.8,2l17.7,38
		C128.1,166.6,128.2,167.2,128.2,167.7z M97.5,154h16.9l-8.4-19L97.5,154z"/>
	<path class="st1" d="M171.5,126.7c0.7,0.7,1.1,1.7,1.1,3v37.6c0,1.2-0.4,2.2-1.1,3c-0.7,0.8-1.7,1.2-2.8,1.2
		c-1.4,0-2.4-0.5-3.1-1.5l-23.4-30.4v27.7c0,1.2-0.3,2.2-1,3s-1.6,1.2-2.8,1.2s-2.1-0.4-2.8-1.2s-1-1.8-1-3v-37.6
		c0-1.2,0.4-2.2,1.1-3c0.7-0.7,1.7-1.1,2.9-1.1c1.3,0,2.3,0.5,3.1,1.5l23.3,30.3v-27.6c0-1.2,0.4-2.2,1.1-3c0.7-0.7,1.6-1.1,2.8-1.1
		C169.8,125.6,170.8,125.9,171.5,126.7z"/>
</g>
</svg>
