<?xml version="1.0" encoding="utf-8"?>
<!-- Generator: Adobe Illustrator 22.0.1, SVG Export Plug-In . SVG Version: 6.00 Build 0)  -->
<svg version="1.1" id="Lag_1" xmlns="http://www.w3.org/2000/svg" xmlns:xlink="http://www.w3.org/1999/xlink" x="0px" y="0px"
	 viewBox="0 0 576 512" style="enable-background:new 0 0 576 512;" xml:space="preserve">
<style type="text/css">
	.st0{fill:#BCC3CF;}
	.st1{fill:#C7CEDA;}
</style>
<path class="st0" d="M572.7,292.1l-72.4,124.2C488.8,435.9,467.8,448,445,448H45c-18.5,0-30.1-20.1-20.7-36.1l72.4-124.2
	c11.5-19.7,32.5-31.8,55.3-31.8h400C570.5,256,582,276.1,572.7,292.1z M152,224h328v-48c0-26.5-21.5-48-48-48H272l-64-64H48
	C21.5,64,0,85.5,0,112v278l69.1-118.4C86.2,242.3,118,224,152,224z"/>
<g>
	<path class="st1" d="M41,170.2c-0.7-0.8-1.1-1.8-1.1-3v-37.6c0-1.2,0.4-2.2,1.1-3c0.7-0.7,1.7-1.1,3-1.1s2.3,0.4,3,1.1
		s1.1,1.7,1.1,3v37.6c0,1.2-0.4,2.2-1.1,3c-0.7,0.8-1.8,1.2-3,1.2C42.7,171.4,41.7,171,41,170.2z"/>
	<path class="st1" d="M58.9,170c-0.7-0.7-1.1-1.6-1.1-2.9v-37.3c0-1.2,0.4-2.2,1.1-2.9c0.7-0.7,1.7-1,2.9-1h12.7
		c7.4,0,13.1,2,17.2,5.9c4.1,3.9,6.1,9.5,6.1,16.6c0,7.2-2,12.7-6.1,16.7c-4.1,3.9-9.8,5.9-17.2,5.9H61.8
		C60.6,171,59.6,170.7,58.9,170z M74,164.3c10.4,0,15.6-5.3,15.6-15.9c0-10.5-5.2-15.8-15.6-15.8h-7.9v31.7H74z"/>
	<path class="st1" d="M107.2,170c-0.7-0.7-1.1-1.6-1.1-2.9v-37.3c0-1.2,0.4-2.2,1.1-2.9c0.7-0.7,1.7-1,2.9-1h23.1
		c1.2,0,2.2,0.3,2.9,0.8c0.7,0.6,1,1.3,1,2.4s-0.3,1.9-1,2.5s-1.6,0.9-2.9,0.9h-19v12.4h17.7c1.2,0,2.2,0.3,2.9,0.8
		c0.7,0.6,1,1.4,1,2.4s-0.3,1.8-1,2.4c-0.7,0.6-1.6,0.8-2.9,0.8h-17.7v13.2h19c1.2,0,2.2,0.3,2.9,0.9c0.7,0.6,1,1.4,1,2.5
		c0,1-0.3,1.8-1,2.4c-0.7,0.6-1.6,0.8-2.9,0.8h-23.1C108.8,171,107.9,170.7,107.2,170z"/>
</g>
</svg>
