<?xml version="1.0" encoding="utf-8"?>
<!-- Generator: Adobe Illustrator 22.0.1, SVG Export Plug-In . SVG Version: 6.00 Build 0)  -->
<svg version="1.1" id="Lag_1" xmlns="http://www.w3.org/2000/svg" xmlns:xlink="http://www.w3.org/1999/xlink" x="0px" y="0px"
	 viewBox="0 0 512 512" style="enable-background:new 0 0 512 512;" xml:space="preserve">
<style type="text/css">
	.st0{fill:#BCC3CF;}
	.st1{fill:#C7CEDA;}
</style>
<path class="st0" d="M464,128H272l-64-64H48C21.5,64,0,85.5,0,112v288c0,26.5,21.5,48,48,48h416c26.5,0,48-21.5,48-48V176
	C512,149.5,490.5,128,464,128z"/>
<g>
	<path class="st1" d="M195.6,232.5c1.7,1.7,2.5,4,2.5,6.9V327c0,2.8-0.8,4.9-2.4,6.5c-1.6,1.6-3.7,2.4-6.2,2.4
		c-2.6,0-4.6-0.8-6.1-2.4s-2.2-3.7-2.2-6.5v-61L156,313.7c-1.2,2.2-2.5,3.8-3.8,4.8c-1.4,1-3,1.6-4.9,1.6s-3.5-0.5-4.9-1.5
		s-2.7-2.6-3.8-4.9l-25.3-46.9V327c0,2.7-0.8,4.8-2.3,6.4s-3.6,2.4-6.1,2.4c-2.6,0-4.6-0.8-6.1-2.4s-2.2-3.7-2.2-6.5v-87.6
		c0-2.9,0.8-5.2,2.4-6.9s3.8-2.6,6.6-2.6c3.8,0,6.9,2.1,9,6.4l32.9,62.6l32.7-62.6c2.2-4.2,5.1-6.4,8.7-6.4
		C191.7,229.9,193.9,230.8,195.6,232.5z"/>
	<path class="st1" d="M316.2,327.5c0,2.3-0.9,4.2-2.7,5.8c-1.8,1.6-3.9,2.4-6.3,2.4c-1.6,0-3.1-0.4-4.4-1.3
		c-1.4-0.8-2.5-2.1-3.3-3.9l-8.9-19.8h-52.1l-8.9,19.8c-0.8,1.8-1.9,3.1-3.3,3.9c-1.4,0.8-2.9,1.3-4.6,1.3c-2.3,0-4.3-0.8-6.2-2.4
		s-2.8-3.5-2.8-5.8c0-1.3,0.3-2.6,0.9-3.8l40.8-87.8c0.9-2,2.2-3.5,4.1-4.5c1.8-1,3.8-1.6,5.8-1.6s4,0.5,5.8,1.6
		c1.8,1,3.2,2.5,4.1,4.5l41,87.8C315.9,324.9,316.2,326.2,316.2,327.5z M245,295.8h39.1l-19.5-44L245,295.8z"/>
	<path class="st1" d="M344.8,333.2c-1.7-1.7-2.6-4-2.6-6.9v-79.9h-26.9c-5.9,0-8.9-2.6-8.9-7.8s3-7.8,8.9-7.8h73
		c5.9,0,8.9,2.6,8.9,7.8s-3,7.8-8.9,7.8h-26.9v79.9c0,2.9-0.9,5.2-2.6,6.9c-1.7,1.7-4,2.6-6.9,2.6
		C348.9,335.7,346.5,334.9,344.8,333.2z"/>
</g>
</svg>
