<?xml version="1.0" encoding="utf-8"?>
<!-- Generator: Adobe Illustrator 22.0.1, SVG Export Plug-In . SVG Version: 6.00 Build 0)  -->
<svg version="1.1" id="Lag_1" xmlns="http://www.w3.org/2000/svg" xmlns:xlink="http://www.w3.org/1999/xlink" x="0px" y="0px"
	 viewBox="0 0 512 512" style="enable-background:new 0 0 512 512;" xml:space="preserve">
<style type="text/css">
	.st0{fill:#949BA7;}
	.st1{fill:#C7CEDA;}
</style>
<path class="st0" d="M464,128H272l-64-64H48C21.5,64,0,85.5,0,112v288c0,26.5,21.5,48,48,48h416c26.5,0,48-21.5,48-48V176
	C512,149.5,490.5,128,464,128z"/>
<g>
	<path class="st1" d="M98.8,333.2c-1.7-1.8-2.6-4.1-2.6-7v-86.9c0-2.9,0.9-5.2,2.6-6.9s4-2.6,6.9-2.6c3,0,5.3,0.9,7,2.6
		c1.7,1.7,2.6,4,2.6,6.9v86.9c0,2.9-0.9,5.2-2.6,7s-4.1,2.7-7,2.7C102.9,335.9,100.6,335,98.8,333.2z"/>
	<path class="st1" d="M140.3,332.6c-1.6-1.6-2.4-3.8-2.4-6.7v-86.3c0-2.9,0.8-5.1,2.4-6.7c1.6-1.6,3.9-2.4,6.7-2.4h29.3
		c17.1,0,30.3,4.6,39.7,13.7c9.4,9.1,14.1,21.9,14.1,38.4c0,16.6-4.7,29.4-14.1,38.6c-9.4,9.1-22.7,13.7-39.7,13.7H147
		C144.1,335,141.9,334.2,140.3,332.6z M175.1,319.5c24,0,36-12.2,36-36.7c0-24.4-12-36.6-36-36.6h-18.2v73.3H175.1z"/>
	<path class="st1" d="M251.9,332.6c-1.6-1.6-2.4-3.8-2.4-6.7v-86.3c0-2.9,0.8-5.1,2.4-6.7c1.6-1.6,3.9-2.4,6.7-2.4H312
		c2.9,0,5.1,0.6,6.7,1.9c1.6,1.3,2.4,3.1,2.4,5.5c0,2.5-0.8,4.4-2.4,5.7s-3.8,2-6.7,2h-44v28.7h41c2.9,0,5.1,0.6,6.7,1.9
		s2.4,3.2,2.4,5.6s-0.8,4.2-2.4,5.5s-3.8,1.9-6.7,1.9h-41v30.5h44c2.9,0,5.1,0.7,6.7,2s2.4,3.2,2.4,5.7c0,2.4-0.8,4.2-2.4,5.5
		s-3.8,1.9-6.7,1.9h-53.4C255.7,335,253.5,334.2,251.9,332.6z"/>
	<path class="st1" d="M337.3,332.7c-2.1-2.1-3.1-4.8-3.1-7.9c0-3.2,1-5.8,3.1-7.9s4.7-3.2,7.8-3.2c3.2,0,5.8,1.1,7.8,3.2
		c2.1,2.1,3.1,4.8,3.1,7.9c0,3.2-1,5.8-3.1,7.9s-4.7,3.2-7.8,3.2C342,335.9,339.4,334.8,337.3,332.7z"/>
	<path class="st1" d="M374,332.7c-2.1-2.1-3.1-4.8-3.1-7.9c0-3.2,1-5.8,3.1-7.9s4.7-3.2,7.8-3.2c3.2,0,5.8,1.1,7.8,3.2
		c2.1,2.1,3.1,4.8,3.1,7.9c0,3.2-1,5.8-3.1,7.9s-4.7,3.2-7.8,3.2C378.7,335.9,376.1,334.8,374,332.7z"/>
	<path class="st1" d="M410.7,332.7c-2.1-2.1-3.1-4.8-3.1-7.9c0-3.2,1-5.8,3.1-7.9s4.7-3.2,7.8-3.2c3.2,0,5.8,1.1,7.8,3.2
		c2.1,2.1,3.1,4.8,3.1,7.9c0,3.2-1,5.8-3.1,7.9s-4.7,3.2-7.8,3.2C415.4,335.9,412.8,334.8,410.7,332.7z"/>
</g>
</svg>
