<?xml version="1.0" encoding="utf-8"?>
<!-- Generator: Adobe Illustrator 22.0.1, SVG Export Plug-In . SVG Version: 6.00 Build 0)  -->
<svg version="1.1" id="Lag_1" xmlns="http://www.w3.org/2000/svg" xmlns:xlink="http://www.w3.org/1999/xlink" x="0px" y="0px"
	 viewBox="0 0 576 512" style="enable-background:new 0 0 576 512;" xml:space="preserve">
<style type="text/css">
	.st0{fill:#BCC3CF;}
	.st1{fill:#C7CEDA;}
</style>
<path class="st0" d="M572.7,292.1l-72.4,124.2C488.8,435.9,467.8,448,445,448H45c-18.5,0-30.1-20.1-20.7-36.1l72.4-124.2
	c11.5-19.7,32.5-31.8,55.3-31.8h400C570.5,256,582,276.1,572.7,292.1z M152,224h328v-48c0-26.5-21.5-48-48-48H272l-64-64H48
	C21.5,64,0,85.5,0,112v278l69.1-118.4C86.2,242.3,118,224,152,224z"/>
<g>
	<path class="st1" d="M41,170.3c-0.7-0.7-1.1-1.8-1.1-3v-37.4c0-1.2,0.4-2.2,1.1-2.9c0.7-0.7,1.7-1,2.9-1h15.7
		c4.8,0,8.6,1.2,11.3,3.6c2.7,2.4,4,5.8,4,10.1s-1.3,7.7-4,10.2s-6.4,3.6-11.3,3.6H48.1v13.8c0,1.3-0.4,2.3-1.1,3
		c-0.7,0.7-1.8,1.1-3,1.1C42.7,171.4,41.7,171,41,170.3z M58.6,147.1c5.7,0,8.5-2.5,8.5-7.4s-2.8-7.4-8.5-7.4H48.1v14.8L58.6,147.1
		L58.6,147.1z"/>
	<path class="st1" d="M119,168.1c0,1-0.4,1.8-1.2,2.4c-0.8,0.6-1.7,1-2.8,1c-0.7,0-1.3-0.2-2-0.5c-0.6-0.3-1.1-0.8-1.6-1.4
		l-8.5-12.9c-0.9-1.4-1.8-2.3-2.7-2.9c-1-0.6-2.2-0.8-3.7-0.8h-6.3v14.3c0,1.3-0.4,2.3-1.1,3s-1.7,1.1-2.9,1.1c-1.2,0-2.2-0.4-3-1.1
		c-0.7-0.7-1.1-1.8-1.1-3v-37.4c0-1.2,0.4-2.2,1.1-2.9c0.7-0.7,1.7-1,2.9-1h16c5.1,0,9,1.1,11.7,3.4s4,5.6,4,9.9c0,3.5-1,6.4-3,8.6
		c-2,2.2-4.8,3.7-8.4,4.3c1.2,0.3,2.3,0.8,3.3,1.6c0.9,0.8,1.9,1.8,2.8,3.2l5.8,8.9C118.7,166.6,119,167.3,119,168.1z M107.8,144.8
		c1.5-1.2,2.2-3,2.2-5.4c0-2.5-0.7-4.3-2.2-5.4c-1.5-1.1-3.7-1.7-6.8-1.7H90.2v14.3H101C104,146.6,106.3,146,107.8,144.8z"/>
	<path class="st1" d="M134.9,168.8c-3.2-1.9-5.7-4.6-7.5-8.1s-2.6-7.6-2.6-12.3s0.9-8.8,2.6-12.3s4.2-6.2,7.5-8
		c3.2-1.9,7.1-2.8,11.5-2.8s8.2,0.9,11.4,2.8c3.2,1.9,5.7,4.6,7.4,8c1.7,3.5,2.6,7.6,2.6,12.3s-0.9,8.8-2.6,12.3
		c-1.8,3.5-4.2,6.2-7.5,8.1c-3.2,1.9-7,2.8-11.4,2.8C142,171.6,138.2,170.6,134.9,168.8z M156.1,160.7c2.3-2.9,3.5-7,3.5-12.3
		s-1.2-9.4-3.5-12.3c-2.3-2.8-5.6-4.3-9.7-4.3c-4.2,0-7.4,1.4-9.8,4.3c-2.3,2.8-3.5,6.9-3.5,12.3c0,5.3,1.2,9.4,3.5,12.3
		c2.3,2.9,5.6,4.3,9.8,4.3C150.5,165,153.7,163.6,156.1,160.7z"/>
</g>
</svg>
