0
SECTION
2
HEADER
9
$INSUNITS
70
4
9
$ACADVER
1
AC1014
9
$HANDSEED
5
FFFF
0
ENDSEC
0
SECTION
2
TABLES
0
TABLE
2
VPORT
5
8
100
AcDbSymbolTable
0
ENDTAB
0
TABLE
2
LTYPE
5
5
100
AcDbSymbolTable
0
LTYPE
5
14
100
AcDbSymbolTableRecord
100
AcDbLinetypeTableRecord
2
BYBLOCK
70
0
0
LTYPE
5
15
100
AcDbSymbolTableRecord
100
AcDbLinetypeTableRecord
2
BYLAYER
70
0
0
ENDTAB
0
TABLE
2
LAYER
5
2
100
AcDbSymbolTable
70
2
0
LAYER
5
50
100
AcDbSymbolTableRecord
100
AcDbLayerTableRecord
2
0
70
0
6
CONTINUOUS
0
ENDTAB
0
TABLE
2
STYLE
5
3
100
AcDbSymbolTable
70
1
0
STYLE
5
11
100
AcDbSymbolTableRecord
100
AcDbTextStyleTableRecord
2
STANDARD
70
0
0
ENDTAB
0
TABLE
2
VIEW
5
6
100
AcDbSymbolTable
70
0
0
ENDTAB
0
TABLE
2
UCS
5
7
100
AcDbSymbolTable
70
0
0
ENDTAB
0
TABLE
2
APPID
5
9
100
AcDbSymbolTable
70
2
0
APPID
5
12
100
AcDbSymbolTableRecord
100
AcDbRegAppTableRecord
2
ACAD
70
0
0
ENDTAB
0
TABLE
2
DIMSTYLE
5
A
100
AcDbSymbolTable
70
1
0
ENDTAB
0
TABLE
2
BLOCK_RECORD
5
1
100
AcDbSymbolTable
70
1
0
BLOCK_RECORD
5
1F
100
AcDbSymbolTableRecord
100
AcDbBlockTableRecord
2
*MODEL_SPACE
0
BLOCK_RECORD
5
1B
100
AcDbSymbolTableRecord
100
AcDbBlockTableRecord
2
*PAPER_SPACE
0
ENDTAB
0
ENDSEC
0
SECTION
2
BLOCKS
0
BLOCK
5
20
100
AcDbEntity
100
AcDbBlockBegin
2
*MODEL_SPACE
0
ENDBLK
5
21
100
AcDbEntity
100
AcDbBlockEnd
0
BLOCK
5
1C
100
AcDbEntity
100
AcDbBlockBegin
2
*PAPER_SPACE
0
ENDBLK
5
1D
100
AcDbEntity
100
AcDbBlockEnd
0
ENDSEC
0
SECTION
2
ENTITIES
0
LWPOLYLINE
5
100
100
AcDbEntity
8
0
100
AcDbPolyline
90
4
70
1
43
0.0
10
1.4999999664723873
20
0.69999998435378075
10
1.099999975413084
20
0.99999997764825821
10
11.980368705184306
20
4.9397231598637674
10
12.299999725073576
20
4.6999998949468136
0
SPLINE
5
101
100
AcDbEntity
8
0
100
AcDbSpline
70
12
71
2
41
1
41
3
41
1
72
6
73
3
74
0
42
0.000000001
43
0.0000000001
44
0.0000000001
40
0
40
0
40
0
40
0.14300349326437367
40
0.14300349326437367
40
0.14300349326437367
10
3.7999999150633812
20
8.1999998167157173
30
0
10
3.1999999284744263
20
7.799999825656414
30
0
10
2.799999937415123
20
7.1999998390674591
30
0
0
SPLINE
5
102
100
AcDbEntity
8
0
100
AcDbSpline
70
12
71
2
41
1
41
3.0000000000000107
41
1
72
6
73
3
74
0
42
0.000000001
43
0.0000000001
44
0.0000000001
40
0
40
0
40
0
40
0.21642776015909204
40
0.21642776015909204
40
0.21642776015909204
10
2.799999937415123
20
7.1999998390674591
30
0
10
2.3999999463558197
20
6.2999998591840267
30
0
10
2.3999999463558197
20
5.0999998860061169
30
0
0
SPLINE
5
103
100
AcDbEntity
8
0
100
AcDbSpline
70
12
71
2
41
1
41
3.0000000000000178
41
1
72
6
73
3
74
0
42
0.000000001
43
0.0000000001
44
0.0000000001
40
0
40
0
40
0
40
0.19900624968601488
40
0.19900624968601488
40
0.19900624968601488
10
2.3999999463558197
20
5.0999998860061169
30
0
10
2.4999999441206455
20
3.899999912828207
30
0
10
2.8999999351799488
20
3.1999999284744263
30
0
0
SPLINE
5
104
100
AcDbEntity
8
0
100
AcDbSpline
70
12
71
2
41
1
41
2.9999999999999769
41
1
72
6
73
3
74
0
42
0.000000001
43
0.0000000001
44
0.0000000001
40
0
40
0
40
0
40
0.30114846547651941
40
0.30114846547651941
40
0.30114846547651941
10
2.8999999351799488
20
3.1999999284744263
30
0
10
2.6999999396502972
20
4.4999998994171619
30
0
10
2.6999999396502972
20
6.1999998614192009
30
0
0
SPLINE
5
105
100
AcDbEntity
8
0
100
AcDbSpline
70
12
71
2
41
1
41
3
41
1
72
6
73
3
74
0
42
0.000000001
43
0.0000000001
44
0.0000000001
40
0
40
0
40
0
40
0.1486670366997731
40
0.1486670366997731
40
0.1486670366997731
10
2.6999999396502972
20
6.1999998614192009
30
0
10
2.9999999329447746
20
6.9999998435378075
30
0
10
3.3999999240040779
20
7.4999998323619366
30
0
0
SPLINE
5
106
100
AcDbEntity
8
0
100
AcDbSpline
70
12
71
2
41
1
41
2.9999999999999893
41
1
72
6
73
3
74
0
42
0.000000001
43
0.0000000001
44
0.0000000001
40
0
40
0
40
0
40
0.10609789922516889
40
0.10609789922516889
40
0.10609789922516889
10
3.3999999240040779
20
7.4999998323619366
30
0
10
3.899999912828207
20
7.8999998234212399
30
0
10
4.1999999061226845
20
7.3999998345971107
30
0
0
SPLINE
5
107
100
AcDbEntity
8
0
100
AcDbSpline
70
12
71
2
41
1
41
2.9999999999999964
41
1
72
6
73
3
74
0
42
0.000000001
43
0.0000000001
44
0.0000000001
40
0
40
0
40
0
40
0.1718272966881354
40
0.1718272966881354
40
0.1718272966881354
10
4.1999999061226845
20
7.3999998345971107
30
0
10
4.6999998949468127
20
6.3999998569488525
30
0
10
4.7999998927116394
20
5.7999998703598976
30
0
0
SPLINE
5
108
100
AcDbEntity
8
0
100
AcDbSpline
70
12
71
2
41
1
41
3
41
1
72
6
73
3
74
0
42
0.000000001
43
0.0000000001
44
0.0000000001
40
0
40
0
40
0
40
0.076212326142864661
40
0.076212326142864661
40
0.076212326142864661
10
4.7999998927116394
20
5.7999998703598976
30
0
10
4.999999888241291
20
5.1999998837709427
30
0
10
5.1999998837709427
20
5.3999998793005943
30
0
0
SPLINE
5
109
100
AcDbEntity
8
0
100
AcDbSpline
70
12
71
2
41
1
41
3.0000000000000338
41
1
72
6
73
3
74
0
42
0.000000001
43
0.0000000001
44
0.0000000001
40
0
40
0
40
0
40
0.12583344578887268
40
0.12583344578887268
40
0.12583344578887268
10
5.1999998837709427
20
5.3999998793005943
30
0
10
5.0999998860061169
20
6.0999998636543751
30
0
10
5.3999998793005943
20
6.5999998524785042
30
0
0
SPLINE
5
110
100
AcDbEntity
8
0
100
AcDbSpline
70
12
71
2
41
1
41
2.9999999999999929
41
1
72
6
73
3
74
0
42
0.000000001
43
0.0000000001
44
0.0000000001
40
0
40
0
40
0
40
0.16212355638909171
40
0.16212355638909171
40
0.16212355638909171
10
5.3999998793005943
20
6.5999998524785042
30
0
10
6.0999998636543751
20
7.5999998301267624
30
0
10
6.3999998569488525
20
6.8999998457729816
30
0
0
SPLINE
5
111
100
AcDbEntity
8
0
100
AcDbSpline
70
12
71
2
41
1
41
2.9999999999999325
41
1
72
6
73
3
74
0
42
0.000000001
43
0.0000000001
44
0.0000000001
40
0
40
0
40
0
40
0.19991662629226065
40
0.19991662629226065
40
0.19991662629226065
10
6.3999998569488525
20
6.8999998457729816
30
0
10
6.69999985024333
20
6.2999998591840267
30
0
10
6.9999998435378075
20
4.999999888241291
30
0
0
SPLINE
5
112
100
AcDbEntity
8
0
100
AcDbSpline
70
12
71
2
41
1
41
3.000000000000016
41
1
72
6
73
3
74
0
42
0.000000001
43
0.0000000001
44
0.0000000001
40
0
40
0
40
0
40
0.08028076225253962
40
0.08028076225253962
40
0.08028076225253962
10
6.9999998435378075
20
4.999999888241291
30
0
10
7.0999998413026342
20
4.3999999016523361
30
0
10
7.3999998345971107
20
4.4999998994171619
30
0
0
SPLINE
5
113
100
AcDbEntity
8
0
100
AcDbSpline
70
12
71
2
41
1
41
2.9999999999999982
41
1
72
6
73
3
74
0
42
0.000000001
43
0.0000000001
44
0.0000000001
40
0
40
0
40
0
40
0.1560947155125077
40
0.1560947155125077
40
0.1560947155125077
10
7.3999998345971107
20
4.4999998994171619
30
0
10
7.1249998407438397
20
5.5570550564051917
30
0
10
7.5999998301267624
20
5.8999998681247234
30
0
0
SPLINE
5
114
100
AcDbEntity
8
0
100
AcDbSpline
70
12
71
2
41
1
41
3
41
1
72
6
73
3
74
0
42
0.000000001
43
0.0000000001
44
0.0000000001
40
0
40
0
40
0
40
0.15255159980556837
40
0.15255159980556837
40
0.15255159980556837
10
7.5999998301267624
20
5.8999998681247234
30
0
10
8.4999998100101948
20
6.4999998547136784
30
0
10
8.7999998033046722
20
5.8999998681247234
30
0
0
SPLINE
5
115
100
AcDbEntity
8
0
100
AcDbSpline
70
12
71
2
41
1
41
3
41
1
72
6
73
3
74
0
42
0.000000001
43
0.0000000001
44
0.0000000001
40
0
40
0
40
0
40
0.20057454206235067
40
0.20057454206235067
40
0.20057454206235067
10
8.7999998033046722
20
5.8999998681247234
30
0
10
8.8999998010694981
20
5.0999998860061169
30
0
10
8.7999998033046722
20
3.899999912828207
30
0
0
SPLINE
5
116
100
AcDbEntity
8
0
100
AcDbSpline
70
12
71
2
41
1
41
3
41
1
72
6
73
3
74
0
42
0.000000001
43
0.0000000001
44
0.0000000001
40
0
40
0
40
0
40
0.20225975579103167
40
0.20225975579103167
40
0.20225975579103167
10
8.7999998033046722
20
3.899999912828207
30
0
10
8.5999998077750206
20
2.6999999396502972
30
0
10
8.4999998100101948
20
1.8999999575316906
30
0
0
SPLINE
5
117
100
AcDbEntity
8
0
100
AcDbSpline
70
12
71
2
41
1
41
3
41
1
72
6
73
3
74
0
42
0.000000001
43
0.0000000001
44
0.0000000001
40
0
40
0
40
0
40
0.072241761832083945
40
0.072241761832083945
40
0.072241761832083945
10
8.4999998100101948
20
1.8999999575316906
30
0
10
8.1999998167157173
20
1.4999999664723873
30
0
10
8.0999998189508915
20
1.2999999709427357
30
0
0
SPLINE
5
118
100
AcDbEntity
8
0
100
AcDbSpline
70
12
71
2
41
1
41
3
41
1
72
6
73
3
74
0
42
0.000000001
43
0.0000000001
44
0.0000000001
40
0
40
0
40
0
40
0.10848698172767904
40
0.10848698172767904
40
0.10848698172767904
10
8.0999998189508915
20
1.2999999709427357
30
0
10
8.7999998033046722
20
1.5999999642372131
30
0
10
8.7999998033046722
20
1.9999999552965164
30
0
0
SPLINE
5
119
100
AcDbEntity
8
0
100
AcDbSpline
70
12
71
2
41
1
41
3
41
1
72
6
73
3
74
0
42
0.000000001
43
0.0000000001
44
0.0000000001
40
0
40
0
40
0
40
0.29276185347028633
40
0.29276185347028633
40
0.29276185347028633
10
8.7999998033046722
20
1.9999999552965164
30
0
10
8.9999997988343239
20
3.2999999262392521
30
0
10
9.1999997943639755
20
4.8999998904764652
30
0
0
SPLINE
5
120
100
AcDbEntity
8
0
100
AcDbSpline
70
12
71
2
41
1
41
2.9999999999999964
41
1
72
6
73
3
74
0
42
0.000000001
43
0.0000000001
44
0.0000000001
40
0
40
0
40
0
40
0.1878959794239819
40
0.1878959794239819
40
0.1878959794239819
10
9.1999997943639755
20
4.8999998904764652
30
0
10
9.0999997965991497
20
6.1999998614192009
30
0
10
8.5999998077750206
20
6.5999998524785042
30
0
0
SPLINE
5
121
100
AcDbEntity
8
0
100
AcDbSpline
70
12
71
2
41
1
41
2.9999999999999964
41
1
72
6
73
3
74
0
42
0.000000001
43
0.0000000001
44
0.0000000001
40
0
40
0
40
0
40
0.12382171167316938
40
0.12382171167316938
40
0.12382171167316938
10
8.5999998077750206
20
6.5999998524785042
30
0
10
8.0999998189508933
20
6.69999985024333
30
0
10
7.4999998323619366
20
6.1999998614192009
30
0
0
SPLINE
5
122
100
AcDbEntity
8
0
100
AcDbSpline
70
12
71
2
41
1
41
3.0000000000000036
41
1
72
6
73
3
74
0
42
0.000000001
43
0.0000000001
44
0.0000000001
40
0
40
0
40
0
40
0.097722256250940942
40
0.097722256250940942
40
0.097722256250940942
10
7.4999998323619366
20
6.1999998614192009
30
0
10
6.9999998435378084
20
5.7999998703598976
30
0
10
6.926901107972931
20
6.3499998580664405
30
0
0
SPLINE
5
123
100
AcDbEntity
8
0
100
AcDbSpline
70
12
71
2
41
1
41
2.9999999999999822
41
1
72
6
73
3
74
0
42
0.000000001
43
0.0000000001
44
0.0000000001
40
0
40
0
40
0
40
0.17006180091852907
40
0.17006180091852907
40
0.17006180091852907
10
6.926901107972931
20
6.3499998580664405
30
0
10
6.3999998569488525
20
7.5999998301267633
30
0
10
5.9999998658895493
20
7.6999998278915882
30
0
0
SPLINE
5
124
100
AcDbEntity
8
0
100
AcDbSpline
70
12
71
2
41
1
41
3
41
1
72
6
73
3
74
0
42
0.000000001
43
0.0000000001
44
0.0000000001
40
0
40
0
40
0
40
0.1154136474114253
40
0.1154136474114253
40
0.1154136474114253
10
5.9999998658895493
20
7.6999998278915882
30
0
10
5.6999998725950718
20
7.5999998301267624
30
0
10
5.1999998837709427
20
6.8999998457729816
30
0
0
SPLINE
5
125
100
AcDbEntity
8
0
100
AcDbSpline
70
12
71
2
41
1
41
2.9999999999999893
41
1
72
6
73
3
74
0
42
0.000000001
43
0.0000000001
44
0.0000000001
40
0
40
0
40
0
40
0.084064831517395522
40
0.084064831517395522
40
0.084064831517395522
10
5.1999998837709427
20
6.8999998457729816
30
0
10
4.9229409909631379
20
6.4499998558312663
30
0
10
4.6999998949468136
20
6.8999998457729816
30
0
0
SPLINE
5
126
100
AcDbEntity
8
0
100
AcDbSpline
70
12
71
2
41
1
41
2.9999999999999964
41
1
72
6
73
3
74
0
42
0.000000001
43
0.0000000001
44
0.0000000001
40
0
40
0
40
0
40
0.16354975700480173
40
0.16354975700480173
40
0.16354975700480173
10
4.6999998949468136
20
6.8999998457729816
30
0
10
4.432344945720077
20
7.7749998262152076
30
0
10
3.7999999150633812
20
8.1999998167157173
30
0
0
ENDSEC
0
SECTION
2
OBJECTS
0
DICTIONARY
5
C
100
AcDbDictionary
3
ACAD_GROUP
350
D
3
ACAD_MLINESTYLE
350
17
0
DICTIONARY
5
D
100
AcDbDictionary
0
DICTIONARY
5
1A
330
C
100
AcDbDictionary
0
DICTIONARY
5
17
100
AcDbDictionary
0
ENDSEC
0
EOF
