<svg id="Lag_1" data-name="Lag 1" xmlns="http://www.w3.org/2000/svg" viewBox="0 0 479.55 167.72"><defs><style>.cls-1{font-size:32px;}.cls-1,.cls-3{font-family:RobotoCondensed-Bold, Roboto Condensed;font-weight:700;}.cls-2,.cls-5{stroke:#2a1000;stroke-miterlimit:10;stroke-width:3px;}.cls-3{font-size:26px;}.cls-4{letter-spacing:-0.01em;}.cls-5{fill:none;}</style></defs><title>at_lægge_sammen</title><text class="cls-1" transform="translate(161.05 27.37)">3 + 5 = 8</text><line class="cls-2" x1="167.27" y1="33.6" x2="167.27" y2="63.11"/><text class="cls-3" transform="translate(0 83.18)">Addend</text><line class="cls-2" x1="192.75" y1="33.6" x2="192.75" y2="98.23"/><text class="cls-3" transform="translate(0 118.6)">Regneope<tspan class="cls-4" x="103.4" y="0">r</tspan><tspan x="111.64" y="0">a</tspan><tspan class="cls-4" x="123.88" y="0">t</tspan><tspan x="131.49" y="0">or</tspan></text><path class="cls-5" d="M202.55,102.05c0,7.26-14.18,13.13-31.71,13.13" transform="translate(-9.8 -3.82)"/><path class="cls-5" d="M177.07,66.93C177.07,73.6,142.4,79,99.55,79" transform="translate(-9.8 -3.82)"/><line class="cls-2" x1="262.52" y1="33.6" x2="262.52" y2="63.11"/><path class="cls-5" d="M272.32,66.93C272.32,73.6,307,79,349.85,79" transform="translate(-9.8 -3.82)"/><text class="cls-3" transform="translate(351.25 83.18)">Sum</text><line class="cls-5" x1="237.75" y1="33.35" x2="237.75" y2="82.93"/><path class="cls-5" d="M247.55,86.75c0,15.57,45.75,28.18,102.3,28.18" transform="translate(-9.8 -3.82)"/><text class="cls-3" transform="translate(351.25 119.68)">Lighedstegn</text><line class="cls-5" x1="215.25" y1="33.6" x2="215.25" y2="108.41"/><path class="cls-5" d="M225.05,112.23c0,23.5,55.81,42.52,124.8,42.52" transform="translate(-9.8 -3.82)"/><text class="cls-3" transform="translate(351.25 160.68)">Addend</text></svg>