<svg id="Lag_1" data-name="Lag 1" xmlns="http://www.w3.org/2000/svg" viewBox="0 0 500 250"><defs><style>.cls-1{fill:#287fa5;}.cls-2{fill:#5da6df;}.cls-3{fill:#7ab1ff;}.cls-4{fill:#bcddff;}.cls-5{fill:#fff;}.cls-6{font-size:26px;}.cls-6,.cls-7{font-family:RobotoCondensed-Bold, Roboto Condensed;font-weight:700;}.cls-7{font-size:16px;}.cls-8{letter-spacing:-0.08em;}</style></defs><title>NZQR</title><ellipse class="cls-1" cx="250" cy="125" rx="250" ry="125"/><ellipse class="cls-2" cx="289.23" cy="125" rx="210.77" ry="100.89"/><ellipse class="cls-3" cx="342.15" cy="125" rx="157.85" ry="75.56"/><ellipse class="cls-4" cx="391.21" cy="125" rx="108.79" ry="52.08"/><circle class="cls-5" cx="111.6" cy="41.12" r="17.77"/><circle class="cls-5" cx="179.45" cy="58.89" r="17.77"/><circle class="cls-5" cx="252.1" cy="83.54" r="17.77"/><circle class="cls-5" cx="337.29" cy="99.87" r="17.77"/><text class="cls-6" transform="translate(329.6 107.8)">N</text><circle class="cls-5" cx="252.1" cy="83.54" r="17.77"/><text class="cls-6" transform="translate(244.41 91.47)">Z</text><circle class="cls-5" cx="179.45" cy="58.89" r="17.77"/><text class="cls-6" transform="translate(171.76 66.82)">Q</text><circle class="cls-5" cx="111.6" cy="41.12" r="17.77"/><text class="cls-6" transform="translate(103.92 49.05)">R</text><text class="cls-7" transform="translate(372.33 127.33)">1,2,3,4 os<tspan class="cls-8" x="63.08" y="0">v</tspan><tspan x="68.96" y="0">...</tspan></text><text class="cls-7" transform="translate(204.67 127.33)">-2,-1,0,1,2<tspan x="0" y="19.2" xml:space="preserve">     os</tspan><tspan class="cls-8" x="33.66" y="19.2">v</tspan><tspan x="39.55" y="19.2">...</tspan></text><text class="cls-7" transform="translate(116.9 154)">1</text><text class="cls-7" transform="translate(116.9 174)">3</text><text class="cls-7" transform="translate(111.6 157.33) scale(2.92 1)">_</text><text class="cls-7" transform="translate(136.27 163.33)">=</text><text class="cls-7" transform="translate(151.6 163.33)">0,333</text><text class="cls-7" transform="translate(119.63 91.3)">3</text><text class="cls-7" transform="translate(119.63 111.3)">5</text><text class="cls-7" transform="translate(114.33 94.64) scale(2.92 1)">_</text><text class="cls-7" transform="translate(139 100.64)">=</text><text class="cls-7" transform="translate(154.33 100.64)">0,6</text><text class="cls-7" transform="translate(2.33 127.33)">π = 3,1415.</text></svg>