<svg id="Lag_1" data-name="Lag 1" xmlns="http://www.w3.org/2000/svg" viewBox="0 0 1920.19 540"><defs><style>.cls-1{fill:#567290;}.cls-2{fill:#5a7695;}.cls-3{fill:none;stroke:#5a7695;stroke-miterlimit:10;stroke-width:8px;stroke-dasharray:32;}</style></defs><title>Footer</title><rect class="cls-1" width="1920" height="540"/><path class="cls-2" d="M0,311c122.71,0,222,102.42,222,229H363C363,352.07,200.64,200,0,200Z"/><path class="cls-2" d="M912-364"/><path class="cls-2" d="M1920,352V271c-67.13-39.59-99.7-35.49-117-25-29.91,18.14-15.11,55.94-51,96-15.8,17.63-49.75,31-117,57-72,27.84-91.4,30.93-104,52-16.43,27.48-7.89,63.07,2,89h115.88c-6.93-18.17-12.92-43.1-1.4-62.35,8.83-14.76,22.41-16.92,72.86-36.43,47.11-18.22,70.9-27.58,82-39.93,25.15-28.07,14.78-54.55,35.73-67.26,12.12-7.35,34.94-10.22,82,17.52"/><path class="cls-3" d="M1469.26,0c0,275.26,201.6,498,450.74,498"/><path class="cls-3" d="M1920.19,149.3C1681.86,149.3,1489,323.85,1489,539.56"/><path class="cls-2" d="M0,113.5C33.72,113.5,61,63.18,61,1h61C122,125.37,67.43,226,0,226V114"/><rect class="cls-1" x="1458" y="521" width="51" height="19"/><rect class="cls-1" x="1548" y="294" width="41" height="41"/><circle class="cls-2" cx="1568.5" cy="314.5" r="26.5"/><circle class="cls-1" cx="1568.5" cy="314.5" r="16.56"/><polygon class="cls-2" points="160.03 342.99 181.77 385.83 155.54 426.08 107.57 423.49 85.83 380.65 112.06 340.4 160.03 342.99"/><polygon class="cls-2" points="318.33 202.33 334.36 233.91 315.02 263.58 279.67 261.67 263.64 230.09 282.98 200.42 318.33 202.33"/><polygon class="cls-2" points="479.41 373.24 503.43 420.55 474.46 465 421.48 462.14 397.47 414.83 426.43 370.38 479.41 373.24"/><polygon class="cls-2" points="527.19 145.84 551.5 193.75 522.17 238.76 468.52 235.86 444.2 187.95 473.54 142.94 527.19 145.84"/><polygon class="cls-2" points="1683.48 159.37 1649.78 134.15 1609.9 147.61 1623.47 107.77 1598.35 74 1640.43 74.59 1664.78 40.26 1677.22 80.47 1717.4 93.02 1683 117.28 1683.48 159.37"/><polygon class="cls-2" points="1355.24 123.88 1338.7 111.5 1319.14 118.11 1325.8 98.56 1313.47 82 1334.12 82.29 1346.06 65.45 1352.17 85.17 1371.87 91.33 1355 103.23 1355.24 123.88"/><polygon class="cls-2" points="1450.45 394.9 1426.57 377.02 1398.31 386.56 1407.92 358.33 1390.12 334.4 1419.94 334.82 1437.2 310.49 1446.02 338.99 1474.49 347.88 1450.11 365.07 1450.45 394.9"/><polygon class="cls-2" points="87 540 66 500 18 497 0 524 0 540 87 540"/><polygon class="cls-2" points="376 72 303 149 199 125 169 23 191 0 354 0 376 72"/></svg>